<mxfile host="app.diagrams.net" agent="Mozilla/5.0 (Windows NT 10.0; Win64; x64) AppleWebKit/537.36 (KHTML, like Gecko) Chrome/135.0.0.0 Safari/537.36" border="50" scale="3" compressed="false" locked="false" version="26.2.14">
  <diagram name="Blank" id="YmL12bMKpDGza6XwsDPr">
    <mxGraphModel dx="4037" dy="2710" grid="0" gridSize="10" guides="1" tooltips="1" connect="1" arrows="1" fold="1" page="0" pageScale="1" pageWidth="827" pageHeight="1169" background="none" math="1" shadow="0">
      <root>
        <mxCell id="X5NqExCQtvZxIxQ7pmgY-0" />
        <mxCell id="1" parent="X5NqExCQtvZxIxQ7pmgY-0" />
        <mxCell id="12okKEDnnOAbfhYoop25-21" style="edgeStyle=orthogonalEdgeStyle;rounded=0;orthogonalLoop=1;jettySize=auto;html=1;" parent="1" source="12okKEDnnOAbfhYoop25-3" target="12okKEDnnOAbfhYoop25-10" edge="1">
          <mxGeometry relative="1" as="geometry" />
        </mxCell>
        <mxCell id="12okKEDnnOAbfhYoop25-23" style="edgeStyle=orthogonalEdgeStyle;rounded=0;orthogonalLoop=1;jettySize=auto;html=1;" parent="1" source="12okKEDnnOAbfhYoop25-3" target="12okKEDnnOAbfhYoop25-11" edge="1">
          <mxGeometry relative="1" as="geometry" />
        </mxCell>
        <mxCell id="12okKEDnnOAbfhYoop25-24" style="edgeStyle=orthogonalEdgeStyle;rounded=0;orthogonalLoop=1;jettySize=auto;html=1;" parent="1" source="12okKEDnnOAbfhYoop25-3" target="12okKEDnnOAbfhYoop25-9" edge="1">
          <mxGeometry relative="1" as="geometry" />
        </mxCell>
        <mxCell id="12okKEDnnOAbfhYoop25-3" value="" style="shape=mxgraph.cisco.switches.workgroup_switch;html=1;pointerEvents=1;dashed=0;fillColor=#036897;strokeColor=#ffffff;strokeWidth=2;verticalLabelPosition=bottom;verticalAlign=top;align=center;outlineConnect=0;" parent="1" vertex="1">
          <mxGeometry x="-809" y="82.5" width="122" height="71" as="geometry" />
        </mxCell>
        <mxCell id="12okKEDnnOAbfhYoop25-20" style="edgeStyle=orthogonalEdgeStyle;rounded=0;orthogonalLoop=1;jettySize=auto;html=1;" parent="1" source="12okKEDnnOAbfhYoop25-4" target="12okKEDnnOAbfhYoop25-3" edge="1">
          <mxGeometry relative="1" as="geometry" />
        </mxCell>
        <mxCell id="1rF84t2fvDRtTQMVhOa5-36" style="edgeStyle=orthogonalEdgeStyle;rounded=0;orthogonalLoop=1;jettySize=auto;html=1;" parent="1" source="12okKEDnnOAbfhYoop25-4" target="1rF84t2fvDRtTQMVhOa5-9" edge="1">
          <mxGeometry relative="1" as="geometry" />
        </mxCell>
        <mxCell id="12okKEDnnOAbfhYoop25-4" value="" style="shape=mxgraph.cisco.routers.router;html=1;pointerEvents=1;dashed=0;fillColor=#036897;strokeColor=#ffffff;strokeWidth=2;verticalLabelPosition=bottom;verticalAlign=top;align=center;outlineConnect=0;" parent="1" vertex="1">
          <mxGeometry x="-800" y="-64.5" width="104" height="54" as="geometry" />
        </mxCell>
        <mxCell id="12okKEDnnOAbfhYoop25-5" value="" style="shape=mxgraph.cisco.computers_and_peripherals.pc;html=1;pointerEvents=1;dashed=0;fillColor=#036897;strokeColor=#ffffff;strokeWidth=2;verticalLabelPosition=bottom;verticalAlign=top;align=center;outlineConnect=0;" parent="1" vertex="1">
          <mxGeometry x="-950" y="460.5" width="78" height="70" as="geometry" />
        </mxCell>
        <mxCell id="12okKEDnnOAbfhYoop25-6" value="" style="shape=mxgraph.cisco.computers_and_peripherals.terminal;html=1;pointerEvents=1;dashed=0;fillColor=#036897;strokeColor=#ffffff;strokeWidth=2;verticalLabelPosition=bottom;verticalAlign=top;align=center;outlineConnect=0;" parent="1" vertex="1">
          <mxGeometry x="-850" y="468.5" width="61" height="54" as="geometry" />
        </mxCell>
        <mxCell id="12okKEDnnOAbfhYoop25-7" value="" style="shape=mxgraph.cisco.computers_and_peripherals.workstation;html=1;pointerEvents=1;dashed=0;fillColor=#036897;strokeColor=#ffffff;strokeWidth=2;verticalLabelPosition=bottom;verticalAlign=top;align=center;outlineConnect=0;" parent="1" vertex="1">
          <mxGeometry x="-749" y="468.5" width="83" height="62" as="geometry" />
        </mxCell>
        <mxCell id="12okKEDnnOAbfhYoop25-8" value="" style="shape=mxgraph.cisco.computers_and_peripherals.laptop;html=1;pointerEvents=1;dashed=0;fillColor=#036897;strokeColor=#ffffff;strokeWidth=2;verticalLabelPosition=bottom;verticalAlign=top;align=center;outlineConnect=0;" parent="1" vertex="1">
          <mxGeometry x="-649" y="461.5" width="90" height="61" as="geometry" />
        </mxCell>
        <mxCell id="12okKEDnnOAbfhYoop25-31" style="edgeStyle=orthogonalEdgeStyle;rounded=0;orthogonalLoop=1;jettySize=auto;html=1;" parent="1" source="12okKEDnnOAbfhYoop25-9" target="12okKEDnnOAbfhYoop25-15" edge="1">
          <mxGeometry relative="1" as="geometry">
            <mxPoint x="-1417" y="269" as="targetPoint" />
            <Array as="points">
              <mxPoint x="-1490" y="408" />
            </Array>
          </mxGeometry>
        </mxCell>
        <mxCell id="12okKEDnnOAbfhYoop25-32" style="edgeStyle=orthogonalEdgeStyle;rounded=0;orthogonalLoop=1;jettySize=auto;html=1;" parent="1" source="12okKEDnnOAbfhYoop25-9" target="12okKEDnnOAbfhYoop25-14" edge="1">
          <mxGeometry relative="1" as="geometry">
            <Array as="points">
              <mxPoint x="-1599" y="203" />
            </Array>
          </mxGeometry>
        </mxCell>
        <mxCell id="12okKEDnnOAbfhYoop25-9" value="" style="shape=mxgraph.cisco.switches.workgroup_switch;html=1;pointerEvents=1;dashed=0;fillColor=#036897;strokeColor=#ffffff;strokeWidth=2;verticalLabelPosition=bottom;verticalAlign=top;align=center;outlineConnect=0;" parent="1" vertex="1">
          <mxGeometry x="-1580" y="94.5" width="101" height="50" as="geometry" />
        </mxCell>
        <mxCell id="12okKEDnnOAbfhYoop25-22" style="edgeStyle=orthogonalEdgeStyle;rounded=0;orthogonalLoop=1;jettySize=auto;html=1;" parent="1" source="12okKEDnnOAbfhYoop25-10" target="12okKEDnnOAbfhYoop25-12" edge="1">
          <mxGeometry relative="1" as="geometry" />
        </mxCell>
        <mxCell id="12okKEDnnOAbfhYoop25-26" style="edgeStyle=orthogonalEdgeStyle;rounded=0;orthogonalLoop=1;jettySize=auto;html=1;" parent="1" source="12okKEDnnOAbfhYoop25-10" target="12okKEDnnOAbfhYoop25-13" edge="1">
          <mxGeometry relative="1" as="geometry" />
        </mxCell>
        <mxCell id="12okKEDnnOAbfhYoop25-10" value="" style="shape=mxgraph.cisco.switches.workgroup_switch;html=1;pointerEvents=1;dashed=0;fillColor=#036897;strokeColor=#ffffff;strokeWidth=2;verticalLabelPosition=bottom;verticalAlign=top;align=center;outlineConnect=0;" parent="1" vertex="1">
          <mxGeometry x="-370" y="93" width="101" height="50" as="geometry" />
        </mxCell>
        <mxCell id="12okKEDnnOAbfhYoop25-27" style="edgeStyle=orthogonalEdgeStyle;rounded=0;orthogonalLoop=1;jettySize=auto;html=1;" parent="1" source="12okKEDnnOAbfhYoop25-11" target="12okKEDnnOAbfhYoop25-7" edge="1">
          <mxGeometry relative="1" as="geometry">
            <Array as="points">
              <mxPoint x="-699" y="385.5" />
              <mxPoint x="-682" y="385.5" />
            </Array>
          </mxGeometry>
        </mxCell>
        <mxCell id="12okKEDnnOAbfhYoop25-28" style="edgeStyle=orthogonalEdgeStyle;rounded=0;orthogonalLoop=1;jettySize=auto;html=1;" parent="1" source="12okKEDnnOAbfhYoop25-11" target="12okKEDnnOAbfhYoop25-6" edge="1">
          <mxGeometry relative="1" as="geometry">
            <Array as="points">
              <mxPoint x="-791" y="387.5" />
              <mxPoint x="-826" y="387.5" />
            </Array>
          </mxGeometry>
        </mxCell>
        <mxCell id="12okKEDnnOAbfhYoop25-29" style="edgeStyle=orthogonalEdgeStyle;rounded=0;orthogonalLoop=1;jettySize=auto;html=1;" parent="1" source="12okKEDnnOAbfhYoop25-11" target="12okKEDnnOAbfhYoop25-5" edge="1">
          <mxGeometry relative="1" as="geometry" />
        </mxCell>
        <mxCell id="12okKEDnnOAbfhYoop25-30" style="edgeStyle=orthogonalEdgeStyle;rounded=0;orthogonalLoop=1;jettySize=auto;html=1;" parent="1" source="12okKEDnnOAbfhYoop25-11" target="12okKEDnnOAbfhYoop25-8" edge="1">
          <mxGeometry relative="1" as="geometry" />
        </mxCell>
        <mxCell id="12okKEDnnOAbfhYoop25-11" value="" style="shape=mxgraph.cisco.switches.workgroup_switch;html=1;pointerEvents=1;dashed=0;fillColor=#036897;strokeColor=#ffffff;strokeWidth=2;verticalLabelPosition=bottom;verticalAlign=top;align=center;outlineConnect=0;" parent="1" vertex="1">
          <mxGeometry x="-798.5" y="246.5" width="101" height="50" as="geometry" />
        </mxCell>
        <mxCell id="12okKEDnnOAbfhYoop25-25" style="edgeStyle=orthogonalEdgeStyle;rounded=0;orthogonalLoop=1;jettySize=auto;html=1;" parent="1" source="12okKEDnnOAbfhYoop25-12" target="12okKEDnnOAbfhYoop25-13" edge="1">
          <mxGeometry relative="1" as="geometry">
            <mxPoint x="-133" y="371.5" as="targetPoint" />
            <Array as="points">
              <mxPoint x="-115" y="322.5" />
              <mxPoint x="-115" y="235.5" />
            </Array>
          </mxGeometry>
        </mxCell>
        <mxCell id="12okKEDnnOAbfhYoop25-12" value="" style="shape=mxgraph.cisco.switches.workgroup_switch;html=1;pointerEvents=1;dashed=0;fillColor=#036897;strokeColor=#ffffff;strokeWidth=2;verticalLabelPosition=bottom;verticalAlign=top;align=center;outlineConnect=0;" parent="1" vertex="1">
          <mxGeometry x="-370" y="285.5" width="101" height="50" as="geometry" />
        </mxCell>
        <mxCell id="12okKEDnnOAbfhYoop25-13" value="" style="shape=mxgraph.cisco.servers.fileserver;html=1;pointerEvents=1;dashed=0;fillColor=#036897;strokeColor=#ffffff;strokeWidth=2;verticalLabelPosition=bottom;verticalAlign=top;align=center;outlineConnect=0;" parent="1" vertex="1">
          <mxGeometry x="-55.59000000000003" y="177.25" width="91" height="116" as="geometry" />
        </mxCell>
        <mxCell id="12okKEDnnOAbfhYoop25-14" value="" style="shape=mxgraph.cisco.computers_and_peripherals.workstation;html=1;pointerEvents=1;dashed=0;fillColor=#036897;strokeColor=#ffffff;strokeWidth=2;verticalLabelPosition=bottom;verticalAlign=top;align=center;outlineConnect=0;" parent="1" vertex="1">
          <mxGeometry x="-1641" y="389" width="83" height="62" as="geometry" />
        </mxCell>
        <mxCell id="12okKEDnnOAbfhYoop25-15" value="" style="shape=mxgraph.cisco.computers_and_peripherals.laptop;html=1;pointerEvents=1;dashed=0;fillColor=#036897;strokeColor=#ffffff;strokeWidth=2;verticalLabelPosition=bottom;verticalAlign=top;align=center;outlineConnect=0;" parent="1" vertex="1">
          <mxGeometry x="-1514" y="383" width="90" height="61" as="geometry" />
        </mxCell>
        <mxCell id="12okKEDnnOAbfhYoop25-16" value="" style="points=[[0,0.64,0],[0.2,0.15,0],[0.4,0.01,0],[0.79,0.25,0],[1,0.65,0],[0.8,0.86,0],[0.41,1,0],[0.16,0.86,0]];verticalLabelPosition=bottom;sketch=0;html=1;verticalAlign=top;aspect=fixed;align=center;pointerEvents=1;shape=mxgraph.cisco19.cloud;fillColor=#186180;strokeColor=none;" parent="1" vertex="1">
          <mxGeometry x="-1685" y="331" width="318.34" height="191" as="geometry" />
        </mxCell>
        <mxCell id="12okKEDnnOAbfhYoop25-17" value="" style="points=[[0,0.64,0],[0.2,0.15,0],[0.4,0.01,0],[0.79,0.25,0],[1,0.65,0],[0.8,0.86,0],[0.41,1,0],[0.16,0.86,0]];verticalLabelPosition=bottom;sketch=0;html=1;verticalAlign=top;aspect=fixed;align=center;pointerEvents=1;shape=mxgraph.cisco19.cloud;fillColor=#186180;strokeColor=none;" parent="1" vertex="1">
          <mxGeometry x="-985.5" y="329.5" width="461.66" height="277" as="geometry" />
        </mxCell>
        <mxCell id="12okKEDnnOAbfhYoop25-18" value="" style="points=[[0,0.64,0],[0.2,0.15,0],[0.4,0.01,0],[0.79,0.25,0],[1,0.65,0],[0.8,0.86,0],[0.41,1,0],[0.16,0.86,0]];verticalLabelPosition=bottom;sketch=0;html=1;verticalAlign=top;aspect=fixed;align=center;pointerEvents=1;shape=mxgraph.cisco19.cloud;fillColor=#186180;strokeColor=none;" parent="1" vertex="1">
          <mxGeometry x="-151" y="134" width="345.83" height="207.5" as="geometry" />
        </mxCell>
        <mxCell id="12okKEDnnOAbfhYoop25-34" value="2811" style="text;strokeColor=none;align=center;fillColor=none;html=1;verticalAlign=middle;whiteSpace=wrap;rounded=0;" parent="1" vertex="1">
          <mxGeometry x="-770.33" y="-36.5" width="44.67" height="30" as="geometry" />
        </mxCell>
        <mxCell id="12okKEDnnOAbfhYoop25-35" value="2950" style="text;strokeColor=none;align=center;fillColor=none;html=1;verticalAlign=middle;whiteSpace=wrap;rounded=0;" parent="1" vertex="1">
          <mxGeometry x="-789" y="269.5" width="60" height="30" as="geometry" />
        </mxCell>
        <mxCell id="12okKEDnnOAbfhYoop25-36" value="2950" style="text;strokeColor=none;align=center;fillColor=none;html=1;verticalAlign=middle;whiteSpace=wrap;rounded=0;" parent="1" vertex="1">
          <mxGeometry x="-357" y="115.5" width="60" height="30" as="geometry" />
        </mxCell>
        <mxCell id="12okKEDnnOAbfhYoop25-37" value="2950" style="text;strokeColor=none;align=center;fillColor=none;html=1;verticalAlign=middle;whiteSpace=wrap;rounded=0;" parent="1" vertex="1">
          <mxGeometry x="-1570" y="117" width="60" height="30" as="geometry" />
        </mxCell>
        <mxCell id="12okKEDnnOAbfhYoop25-38" value="2960" style="text;strokeColor=none;align=center;fillColor=none;html=1;verticalAlign=middle;whiteSpace=wrap;rounded=0;" parent="1" vertex="1">
          <mxGeometry x="-789" y="119.5" width="60" height="30" as="geometry" />
        </mxCell>
        <mxCell id="12okKEDnnOAbfhYoop25-39" value="2950" style="text;strokeColor=none;align=center;fillColor=none;html=1;verticalAlign=middle;whiteSpace=wrap;rounded=0;" parent="1" vertex="1">
          <mxGeometry x="-363" y="305.5" width="60" height="30" as="geometry" />
        </mxCell>
        <mxCell id="12okKEDnnOAbfhYoop25-40" value="Server" style="text;strokeColor=none;align=center;fillColor=none;html=1;verticalAlign=middle;whiteSpace=wrap;rounded=0;" parent="1" vertex="1">
          <mxGeometry x="35.40999999999997" y="209.5" width="60" height="30" as="geometry" />
        </mxCell>
        <mxCell id="12okKEDnnOAbfhYoop25-41" value="ДК" style="text;strokeColor=none;align=center;fillColor=none;html=1;verticalAlign=middle;whiteSpace=wrap;rounded=0;" parent="1" vertex="1">
          <mxGeometry x="-952" y="528.5" width="60" height="30" as="geometry" />
        </mxCell>
        <mxCell id="12okKEDnnOAbfhYoop25-42" value="Пользователи" style="text;strokeColor=none;align=center;fillColor=none;html=1;verticalAlign=middle;whiteSpace=wrap;rounded=0;" parent="1" vertex="1">
          <mxGeometry x="-825" y="560.5" width="90.67" height="30" as="geometry" />
        </mxCell>
        <mxCell id="12okKEDnnOAbfhYoop25-43" value="Д" style="text;strokeColor=none;align=center;fillColor=none;html=1;verticalAlign=middle;whiteSpace=wrap;rounded=0;" parent="1" vertex="1">
          <mxGeometry x="-639" y="522.5" width="60" height="30" as="geometry" />
        </mxCell>
        <mxCell id="12okKEDnnOAbfhYoop25-44" value="А" style="text;strokeColor=none;align=center;fillColor=none;html=1;verticalAlign=middle;whiteSpace=wrap;rounded=0;" parent="1" vertex="1">
          <mxGeometry x="-747" y="525.5" width="60" height="30" as="geometry" />
        </mxCell>
        <mxCell id="12okKEDnnOAbfhYoop25-45" value="К" style="text;strokeColor=none;align=center;fillColor=none;html=1;verticalAlign=middle;whiteSpace=wrap;rounded=0;" parent="1" vertex="1">
          <mxGeometry x="-854" y="525.5" width="60" height="30" as="geometry" />
        </mxCell>
        <mxCell id="12okKEDnnOAbfhYoop25-48" value="ДК" style="text;strokeColor=none;align=center;fillColor=none;html=1;verticalAlign=middle;whiteSpace=wrap;rounded=0;" parent="1" vertex="1">
          <mxGeometry x="-1641" y="453" width="60" height="30" as="geometry" />
        </mxCell>
        <mxCell id="12okKEDnnOAbfhYoop25-49" value="Д" style="text;strokeColor=none;align=center;fillColor=none;html=1;verticalAlign=middle;whiteSpace=wrap;rounded=0;" parent="1" vertex="1">
          <mxGeometry x="-1514" y="451" width="60" height="30" as="geometry" />
        </mxCell>
        <mxCell id="12okKEDnnOAbfhYoop25-50" value="Пользователи" style="text;strokeColor=none;align=center;fillColor=none;html=1;verticalAlign=middle;whiteSpace=wrap;rounded=0;" parent="1" vertex="1">
          <mxGeometry x="-1601" y="474" width="91" height="30" as="geometry" />
        </mxCell>
        <mxCell id="12okKEDnnOAbfhYoop25-51" value="msk-pavlovskaya-teyuboglu-sw-1" style="text;strokeColor=none;align=center;fillColor=none;html=1;verticalAlign=middle;whiteSpace=wrap;rounded=0;" parent="1" vertex="1">
          <mxGeometry x="-1594" y="59" width="213" height="30" as="geometry" />
        </mxCell>
        <mxCell id="12okKEDnnOAbfhYoop25-52" value="msk-donskaya-teyuboglu-sw-1" style="text;strokeColor=none;align=center;fillColor=none;html=1;verticalAlign=middle;whiteSpace=wrap;rounded=0;" parent="1" vertex="1">
          <mxGeometry x="-715.5" y="52.5" width="213" height="30" as="geometry" />
        </mxCell>
        <mxCell id="12okKEDnnOAbfhYoop25-53" value="msk-donskaya-teyuboglu-sw-2" style="text;strokeColor=none;align=center;fillColor=none;html=1;verticalAlign=middle;whiteSpace=wrap;rounded=0;" parent="1" vertex="1">
          <mxGeometry x="-316" y="52.5" width="213" height="30" as="geometry" />
        </mxCell>
        <mxCell id="12okKEDnnOAbfhYoop25-54" value="msk-donskaya-teyuboglu-sw-3" style="text;strokeColor=none;align=center;fillColor=none;html=1;verticalAlign=middle;whiteSpace=wrap;rounded=0;" parent="1" vertex="1">
          <mxGeometry x="-307" y="339" width="213" height="30" as="geometry" />
        </mxCell>
        <mxCell id="12okKEDnnOAbfhYoop25-55" value="msk-donskaya-teyuboglu-sw-4" style="text;strokeColor=none;align=center;fillColor=none;html=1;verticalAlign=middle;whiteSpace=wrap;rounded=0;" parent="1" vertex="1">
          <mxGeometry x="-747" y="220.25" width="213" height="30" as="geometry" />
        </mxCell>
        <mxCell id="12okKEDnnOAbfhYoop25-56" value="GE0/1" style="text;strokeColor=none;align=center;fillColor=none;html=1;verticalAlign=middle;whiteSpace=wrap;rounded=0;" parent="1" vertex="1">
          <mxGeometry x="-819" y="213.5" width="60" height="30" as="geometry" />
        </mxCell>
        <mxCell id="12okKEDnnOAbfhYoop25-57" value="FE0/1" style="text;strokeColor=none;align=center;fillColor=none;html=1;verticalAlign=middle;whiteSpace=wrap;rounded=0;" parent="1" vertex="1">
          <mxGeometry x="-885" y="119.5" width="60" height="30" as="geometry" />
        </mxCell>
        <mxCell id="12okKEDnnOAbfhYoop25-58" value="FE0/24" style="text;strokeColor=none;align=center;fillColor=none;html=1;verticalAlign=middle;whiteSpace=wrap;rounded=0;" parent="1" vertex="1">
          <mxGeometry x="-1477" y="87" width="60" height="30" as="geometry" />
        </mxCell>
        <mxCell id="12okKEDnnOAbfhYoop25-59" value="FE0/20" style="text;strokeColor=none;align=center;fillColor=none;html=1;verticalAlign=middle;whiteSpace=wrap;rounded=0;" parent="1" vertex="1">
          <mxGeometry x="-1505" y="171" width="60" height="30" as="geometry" />
        </mxCell>
        <mxCell id="12okKEDnnOAbfhYoop25-60" value="FE0/1-0/15" style="text;strokeColor=none;align=center;fillColor=none;html=1;verticalAlign=middle;whiteSpace=wrap;rounded=0;" parent="1" vertex="1">
          <mxGeometry x="-1634" y="163" width="85" height="30" as="geometry" />
        </mxCell>
        <mxCell id="12okKEDnnOAbfhYoop25-61" value="FE0/0" style="text;strokeColor=none;align=center;fillColor=none;html=1;verticalAlign=middle;whiteSpace=wrap;rounded=0;" parent="1" vertex="1">
          <mxGeometry x="-812" y="-6.5" width="60" height="30" as="geometry" />
        </mxCell>
        <mxCell id="12okKEDnnOAbfhYoop25-62" value="FE0/24" style="text;strokeColor=none;align=center;fillColor=none;html=1;verticalAlign=middle;whiteSpace=wrap;rounded=0;" parent="1" vertex="1">
          <mxGeometry x="-812" y="50.5" width="60" height="30" as="geometry" />
        </mxCell>
        <mxCell id="12okKEDnnOAbfhYoop25-63" value="GE0/1" style="text;strokeColor=none;align=center;fillColor=none;html=1;verticalAlign=middle;whiteSpace=wrap;rounded=0;" parent="1" vertex="1">
          <mxGeometry x="-684" y="85.5" width="60" height="30" as="geometry" />
        </mxCell>
        <mxCell id="12okKEDnnOAbfhYoop25-64" value="GE0/1" style="text;strokeColor=none;align=center;fillColor=none;html=1;verticalAlign=middle;whiteSpace=wrap;rounded=0;" parent="1" vertex="1">
          <mxGeometry x="-432" y="87.5" width="60" height="30" as="geometry" />
        </mxCell>
        <mxCell id="12okKEDnnOAbfhYoop25-65" value="GE0/2" style="text;strokeColor=none;align=center;fillColor=none;html=1;verticalAlign=middle;whiteSpace=wrap;rounded=0;" parent="1" vertex="1">
          <mxGeometry x="-382" y="149.5" width="60" height="30" as="geometry" />
        </mxCell>
        <mxCell id="12okKEDnnOAbfhYoop25-66" value="GE0/1" style="text;strokeColor=none;align=center;fillColor=none;html=1;verticalAlign=middle;whiteSpace=wrap;rounded=0;" parent="1" vertex="1">
          <mxGeometry x="-384" y="246.5" width="60" height="30" as="geometry" />
        </mxCell>
        <mxCell id="12okKEDnnOAbfhYoop25-67" value="FE0/1-0/24" style="text;strokeColor=none;align=center;fillColor=none;html=1;verticalAlign=middle;whiteSpace=wrap;rounded=0;" parent="1" vertex="1">
          <mxGeometry x="-268" y="285.5" width="85" height="30" as="geometry" />
        </mxCell>
        <mxCell id="12okKEDnnOAbfhYoop25-68" value="FE0/1-0/24" style="text;strokeColor=none;align=center;fillColor=none;html=1;verticalAlign=middle;whiteSpace=wrap;rounded=0;" parent="1" vertex="1">
          <mxGeometry x="-269" y="123.5" width="85" height="30" as="geometry" />
        </mxCell>
        <mxCell id="12okKEDnnOAbfhYoop25-69" value="FE0/16-0/24" style="text;strokeColor=none;align=center;fillColor=none;html=1;verticalAlign=middle;whiteSpace=wrap;rounded=0;" parent="1" vertex="1">
          <mxGeometry x="-599" y="269.5" width="85" height="30" as="geometry" />
        </mxCell>
        <mxCell id="12okKEDnnOAbfhYoop25-70" value="FE0/11-0/15" style="text;strokeColor=none;align=center;fillColor=none;html=1;verticalAlign=middle;whiteSpace=wrap;rounded=0;" parent="1" vertex="1">
          <mxGeometry x="-747" y="296.5" width="85" height="30" as="geometry" />
        </mxCell>
        <mxCell id="12okKEDnnOAbfhYoop25-71" value="FE0/6-0/10" style="text;strokeColor=none;align=center;fillColor=none;html=1;verticalAlign=middle;whiteSpace=wrap;rounded=0;" parent="1" vertex="1">
          <mxGeometry x="-844" y="296.5" width="85" height="30" as="geometry" />
        </mxCell>
        <mxCell id="12okKEDnnOAbfhYoop25-72" value="FE0/1-0/5" style="text;strokeColor=none;align=center;fillColor=none;html=1;verticalAlign=middle;whiteSpace=wrap;rounded=0;" parent="1" vertex="1">
          <mxGeometry x="-953.5" y="243.5" width="85" height="30" as="geometry" />
        </mxCell>
        <mxCell id="12okKEDnnOAbfhYoop25-73" style="edgeStyle=orthogonalEdgeStyle;rounded=0;orthogonalLoop=1;jettySize=auto;html=1;" parent="1" source="12okKEDnnOAbfhYoop25-76" target="12okKEDnnOAbfhYoop25-88" edge="1">
          <mxGeometry relative="1" as="geometry" />
        </mxCell>
        <mxCell id="12okKEDnnOAbfhYoop25-74" style="edgeStyle=orthogonalEdgeStyle;rounded=0;orthogonalLoop=1;jettySize=auto;html=1;" parent="1" source="12okKEDnnOAbfhYoop25-76" target="12okKEDnnOAbfhYoop25-93" edge="1">
          <mxGeometry relative="1" as="geometry" />
        </mxCell>
        <mxCell id="12okKEDnnOAbfhYoop25-75" style="edgeStyle=orthogonalEdgeStyle;rounded=0;orthogonalLoop=1;jettySize=auto;html=1;" parent="1" source="12okKEDnnOAbfhYoop25-76" target="12okKEDnnOAbfhYoop25-85" edge="1">
          <mxGeometry relative="1" as="geometry" />
        </mxCell>
        <mxCell id="12okKEDnnOAbfhYoop25-76" value="" style="shape=mxgraph.cisco.switches.workgroup_switch;html=1;pointerEvents=1;dashed=0;fillColor=#036897;strokeColor=#ffffff;strokeWidth=2;verticalLabelPosition=bottom;verticalAlign=top;align=center;outlineConnect=0;" parent="1" vertex="1">
          <mxGeometry x="1423" y="67" width="122" height="71" as="geometry" />
        </mxCell>
        <mxCell id="12okKEDnnOAbfhYoop25-77" style="edgeStyle=orthogonalEdgeStyle;rounded=0;orthogonalLoop=1;jettySize=auto;html=1;" parent="1" source="12okKEDnnOAbfhYoop25-78" target="12okKEDnnOAbfhYoop25-76" edge="1">
          <mxGeometry relative="1" as="geometry" />
        </mxCell>
        <mxCell id="1rF84t2fvDRtTQMVhOa5-88" style="edgeStyle=orthogonalEdgeStyle;rounded=0;orthogonalLoop=1;jettySize=auto;html=1;" parent="1" source="12okKEDnnOAbfhYoop25-78" target="1rF84t2fvDRtTQMVhOa5-52" edge="1">
          <mxGeometry relative="1" as="geometry" />
        </mxCell>
        <mxCell id="12okKEDnnOAbfhYoop25-78" value="" style="shape=mxgraph.cisco.routers.router;html=1;pointerEvents=1;dashed=0;fillColor=#036897;strokeColor=#ffffff;strokeWidth=2;verticalLabelPosition=bottom;verticalAlign=top;align=center;outlineConnect=0;" parent="1" vertex="1">
          <mxGeometry x="1432" y="-80" width="104" height="54" as="geometry" />
        </mxCell>
        <mxCell id="12okKEDnnOAbfhYoop25-79" value="" style="shape=mxgraph.cisco.computers_and_peripherals.pc;html=1;pointerEvents=1;dashed=0;fillColor=#036897;strokeColor=#ffffff;strokeWidth=2;verticalLabelPosition=bottom;verticalAlign=top;align=center;outlineConnect=0;" parent="1" vertex="1">
          <mxGeometry x="1282" y="445" width="78" height="70" as="geometry" />
        </mxCell>
        <mxCell id="12okKEDnnOAbfhYoop25-80" value="" style="shape=mxgraph.cisco.computers_and_peripherals.terminal;html=1;pointerEvents=1;dashed=0;fillColor=#036897;strokeColor=#ffffff;strokeWidth=2;verticalLabelPosition=bottom;verticalAlign=top;align=center;outlineConnect=0;" parent="1" vertex="1">
          <mxGeometry x="1382" y="453" width="61" height="54" as="geometry" />
        </mxCell>
        <mxCell id="12okKEDnnOAbfhYoop25-81" value="" style="shape=mxgraph.cisco.computers_and_peripherals.workstation;html=1;pointerEvents=1;dashed=0;fillColor=#036897;strokeColor=#ffffff;strokeWidth=2;verticalLabelPosition=bottom;verticalAlign=top;align=center;outlineConnect=0;" parent="1" vertex="1">
          <mxGeometry x="1483" y="453" width="83" height="62" as="geometry" />
        </mxCell>
        <mxCell id="12okKEDnnOAbfhYoop25-82" value="" style="shape=mxgraph.cisco.computers_and_peripherals.laptop;html=1;pointerEvents=1;dashed=0;fillColor=#036897;strokeColor=#ffffff;strokeWidth=2;verticalLabelPosition=bottom;verticalAlign=top;align=center;outlineConnect=0;" parent="1" vertex="1">
          <mxGeometry x="1583" y="446" width="90" height="61" as="geometry" />
        </mxCell>
        <mxCell id="12okKEDnnOAbfhYoop25-83" style="edgeStyle=orthogonalEdgeStyle;rounded=0;orthogonalLoop=1;jettySize=auto;html=1;" parent="1" source="12okKEDnnOAbfhYoop25-85" target="12okKEDnnOAbfhYoop25-98" edge="1">
          <mxGeometry relative="1" as="geometry">
            <mxPoint x="822" y="251" as="targetPoint" />
            <Array as="points">
              <mxPoint x="749" y="390" />
            </Array>
          </mxGeometry>
        </mxCell>
        <mxCell id="12okKEDnnOAbfhYoop25-84" style="edgeStyle=orthogonalEdgeStyle;rounded=0;orthogonalLoop=1;jettySize=auto;html=1;" parent="1" source="12okKEDnnOAbfhYoop25-85" target="12okKEDnnOAbfhYoop25-97" edge="1">
          <mxGeometry relative="1" as="geometry">
            <Array as="points">
              <mxPoint x="640" y="185" />
            </Array>
          </mxGeometry>
        </mxCell>
        <mxCell id="12okKEDnnOAbfhYoop25-85" value="" style="shape=mxgraph.cisco.switches.workgroup_switch;html=1;pointerEvents=1;dashed=0;fillColor=#036897;strokeColor=#ffffff;strokeWidth=2;verticalLabelPosition=bottom;verticalAlign=top;align=center;outlineConnect=0;" parent="1" vertex="1">
          <mxGeometry x="659" y="76.5" width="101" height="50" as="geometry" />
        </mxCell>
        <mxCell id="12okKEDnnOAbfhYoop25-86" style="edgeStyle=orthogonalEdgeStyle;rounded=0;orthogonalLoop=1;jettySize=auto;html=1;" parent="1" source="12okKEDnnOAbfhYoop25-88" target="12okKEDnnOAbfhYoop25-95" edge="1">
          <mxGeometry relative="1" as="geometry" />
        </mxCell>
        <mxCell id="12okKEDnnOAbfhYoop25-87" style="edgeStyle=orthogonalEdgeStyle;rounded=0;orthogonalLoop=1;jettySize=auto;html=1;" parent="1" source="12okKEDnnOAbfhYoop25-88" target="12okKEDnnOAbfhYoop25-96" edge="1">
          <mxGeometry relative="1" as="geometry" />
        </mxCell>
        <mxCell id="12okKEDnnOAbfhYoop25-88" value="" style="shape=mxgraph.cisco.switches.workgroup_switch;html=1;pointerEvents=1;dashed=0;fillColor=#036897;strokeColor=#ffffff;strokeWidth=2;verticalLabelPosition=bottom;verticalAlign=top;align=center;outlineConnect=0;" parent="1" vertex="1">
          <mxGeometry x="1862" y="77.5" width="101" height="50" as="geometry" />
        </mxCell>
        <mxCell id="12okKEDnnOAbfhYoop25-89" style="edgeStyle=orthogonalEdgeStyle;rounded=0;orthogonalLoop=1;jettySize=auto;html=1;" parent="1" source="12okKEDnnOAbfhYoop25-93" target="12okKEDnnOAbfhYoop25-81" edge="1">
          <mxGeometry relative="1" as="geometry">
            <Array as="points">
              <mxPoint x="1533" y="370" />
              <mxPoint x="1550" y="370" />
            </Array>
          </mxGeometry>
        </mxCell>
        <mxCell id="12okKEDnnOAbfhYoop25-90" style="edgeStyle=orthogonalEdgeStyle;rounded=0;orthogonalLoop=1;jettySize=auto;html=1;" parent="1" source="12okKEDnnOAbfhYoop25-93" target="12okKEDnnOAbfhYoop25-80" edge="1">
          <mxGeometry relative="1" as="geometry">
            <Array as="points">
              <mxPoint x="1441" y="372" />
              <mxPoint x="1406" y="372" />
            </Array>
          </mxGeometry>
        </mxCell>
        <mxCell id="12okKEDnnOAbfhYoop25-91" style="edgeStyle=orthogonalEdgeStyle;rounded=0;orthogonalLoop=1;jettySize=auto;html=1;" parent="1" source="12okKEDnnOAbfhYoop25-93" target="12okKEDnnOAbfhYoop25-79" edge="1">
          <mxGeometry relative="1" as="geometry" />
        </mxCell>
        <mxCell id="12okKEDnnOAbfhYoop25-92" style="edgeStyle=orthogonalEdgeStyle;rounded=0;orthogonalLoop=1;jettySize=auto;html=1;" parent="1" source="12okKEDnnOAbfhYoop25-93" target="12okKEDnnOAbfhYoop25-82" edge="1">
          <mxGeometry relative="1" as="geometry" />
        </mxCell>
        <mxCell id="12okKEDnnOAbfhYoop25-93" value="" style="shape=mxgraph.cisco.switches.workgroup_switch;html=1;pointerEvents=1;dashed=0;fillColor=#036897;strokeColor=#ffffff;strokeWidth=2;verticalLabelPosition=bottom;verticalAlign=top;align=center;outlineConnect=0;" parent="1" vertex="1">
          <mxGeometry x="1433.5" y="231" width="101" height="50" as="geometry" />
        </mxCell>
        <mxCell id="12okKEDnnOAbfhYoop25-94" style="edgeStyle=orthogonalEdgeStyle;rounded=0;orthogonalLoop=1;jettySize=auto;html=1;" parent="1" source="12okKEDnnOAbfhYoop25-95" target="12okKEDnnOAbfhYoop25-96" edge="1">
          <mxGeometry relative="1" as="geometry">
            <mxPoint x="2099" y="356" as="targetPoint" />
            <Array as="points">
              <mxPoint x="2117" y="307" />
              <mxPoint x="2117" y="220" />
            </Array>
          </mxGeometry>
        </mxCell>
        <mxCell id="12okKEDnnOAbfhYoop25-95" value="" style="shape=mxgraph.cisco.switches.workgroup_switch;html=1;pointerEvents=1;dashed=0;fillColor=#036897;strokeColor=#ffffff;strokeWidth=2;verticalLabelPosition=bottom;verticalAlign=top;align=center;outlineConnect=0;" parent="1" vertex="1">
          <mxGeometry x="1862" y="270" width="101" height="50" as="geometry" />
        </mxCell>
        <mxCell id="12okKEDnnOAbfhYoop25-96" value="" style="shape=mxgraph.cisco.servers.fileserver;html=1;pointerEvents=1;dashed=0;fillColor=#036897;strokeColor=#ffffff;strokeWidth=2;verticalLabelPosition=bottom;verticalAlign=top;align=center;outlineConnect=0;" parent="1" vertex="1">
          <mxGeometry x="2176.41" y="161.75" width="91" height="116" as="geometry" />
        </mxCell>
        <mxCell id="12okKEDnnOAbfhYoop25-97" value="" style="shape=mxgraph.cisco.computers_and_peripherals.workstation;html=1;pointerEvents=1;dashed=0;fillColor=#036897;strokeColor=#ffffff;strokeWidth=2;verticalLabelPosition=bottom;verticalAlign=top;align=center;outlineConnect=0;" parent="1" vertex="1">
          <mxGeometry x="598" y="371" width="83" height="62" as="geometry" />
        </mxCell>
        <mxCell id="12okKEDnnOAbfhYoop25-98" value="" style="shape=mxgraph.cisco.computers_and_peripherals.laptop;html=1;pointerEvents=1;dashed=0;fillColor=#036897;strokeColor=#ffffff;strokeWidth=2;verticalLabelPosition=bottom;verticalAlign=top;align=center;outlineConnect=0;" parent="1" vertex="1">
          <mxGeometry x="725" y="365" width="90" height="61" as="geometry" />
        </mxCell>
        <mxCell id="12okKEDnnOAbfhYoop25-99" value="" style="points=[[0,0.64,0],[0.2,0.15,0],[0.4,0.01,0],[0.79,0.25,0],[1,0.65,0],[0.8,0.86,0],[0.41,1,0],[0.16,0.86,0]];verticalLabelPosition=bottom;sketch=0;html=1;verticalAlign=top;aspect=fixed;align=center;pointerEvents=1;shape=mxgraph.cisco19.cloud;fillColor=#186180;strokeColor=none;" parent="1" vertex="1">
          <mxGeometry x="554" y="313" width="318.34" height="191" as="geometry" />
        </mxCell>
        <mxCell id="12okKEDnnOAbfhYoop25-100" value="" style="points=[[0,0.64,0],[0.2,0.15,0],[0.4,0.01,0],[0.79,0.25,0],[1,0.65,0],[0.8,0.86,0],[0.41,1,0],[0.16,0.86,0]];verticalLabelPosition=bottom;sketch=0;html=1;verticalAlign=top;aspect=fixed;align=center;pointerEvents=1;shape=mxgraph.cisco19.cloud;fillColor=#186180;strokeColor=none;" parent="1" vertex="1">
          <mxGeometry x="1260.67" y="326" width="461.66" height="277" as="geometry" />
        </mxCell>
        <mxCell id="12okKEDnnOAbfhYoop25-101" value="" style="points=[[0,0.64,0],[0.2,0.15,0],[0.4,0.01,0],[0.79,0.25,0],[1,0.65,0],[0.8,0.86,0],[0.41,1,0],[0.16,0.86,0]];verticalLabelPosition=bottom;sketch=0;html=1;verticalAlign=top;aspect=fixed;align=center;pointerEvents=1;shape=mxgraph.cisco19.cloud;fillColor=#186180;strokeColor=none;" parent="1" vertex="1">
          <mxGeometry x="2049" y="116" width="345.83" height="207.5" as="geometry" />
        </mxCell>
        <mxCell id="12okKEDnnOAbfhYoop25-102" value="2811" style="text;strokeColor=none;align=center;fillColor=none;html=1;verticalAlign=middle;whiteSpace=wrap;rounded=0;" parent="1" vertex="1">
          <mxGeometry x="1461.67" y="-52" width="44.67" height="30" as="geometry" />
        </mxCell>
        <mxCell id="12okKEDnnOAbfhYoop25-103" value="2950" style="text;strokeColor=none;align=center;fillColor=none;html=1;verticalAlign=middle;whiteSpace=wrap;rounded=0;" parent="1" vertex="1">
          <mxGeometry x="1443" y="254" width="60" height="30" as="geometry" />
        </mxCell>
        <mxCell id="12okKEDnnOAbfhYoop25-104" value="2950" style="text;strokeColor=none;align=center;fillColor=none;html=1;verticalAlign=middle;whiteSpace=wrap;rounded=0;" parent="1" vertex="1">
          <mxGeometry x="1875" y="100" width="60" height="30" as="geometry" />
        </mxCell>
        <mxCell id="12okKEDnnOAbfhYoop25-105" value="2950" style="text;strokeColor=none;align=center;fillColor=none;html=1;verticalAlign=middle;whiteSpace=wrap;rounded=0;" parent="1" vertex="1">
          <mxGeometry x="669" y="99" width="60" height="30" as="geometry" />
        </mxCell>
        <mxCell id="12okKEDnnOAbfhYoop25-106" value="2960" style="text;strokeColor=none;align=center;fillColor=none;html=1;verticalAlign=middle;whiteSpace=wrap;rounded=0;" parent="1" vertex="1">
          <mxGeometry x="1443" y="104" width="60" height="30" as="geometry" />
        </mxCell>
        <mxCell id="12okKEDnnOAbfhYoop25-107" value="2950" style="text;strokeColor=none;align=center;fillColor=none;html=1;verticalAlign=middle;whiteSpace=wrap;rounded=0;" parent="1" vertex="1">
          <mxGeometry x="1869" y="290" width="60" height="30" as="geometry" />
        </mxCell>
        <mxCell id="12okKEDnnOAbfhYoop25-108" value="Server" style="text;strokeColor=none;align=center;fillColor=none;html=1;verticalAlign=middle;whiteSpace=wrap;rounded=0;" parent="1" vertex="1">
          <mxGeometry x="2267.41" y="194" width="60" height="30" as="geometry" />
        </mxCell>
        <mxCell id="12okKEDnnOAbfhYoop25-109" value="ДК" style="text;strokeColor=none;align=center;fillColor=none;html=1;verticalAlign=middle;whiteSpace=wrap;rounded=0;" parent="1" vertex="1">
          <mxGeometry x="1280" y="513" width="60" height="30" as="geometry" />
        </mxCell>
        <mxCell id="12okKEDnnOAbfhYoop25-110" value="Пользователи" style="text;strokeColor=none;align=center;fillColor=none;html=1;verticalAlign=middle;whiteSpace=wrap;rounded=0;" parent="1" vertex="1">
          <mxGeometry x="1407" y="545" width="90.67" height="30" as="geometry" />
        </mxCell>
        <mxCell id="12okKEDnnOAbfhYoop25-111" value="Д" style="text;strokeColor=none;align=center;fillColor=none;html=1;verticalAlign=middle;whiteSpace=wrap;rounded=0;" parent="1" vertex="1">
          <mxGeometry x="1593" y="507" width="60" height="30" as="geometry" />
        </mxCell>
        <mxCell id="12okKEDnnOAbfhYoop25-112" value="А" style="text;strokeColor=none;align=center;fillColor=none;html=1;verticalAlign=middle;whiteSpace=wrap;rounded=0;" parent="1" vertex="1">
          <mxGeometry x="1485" y="510" width="60" height="30" as="geometry" />
        </mxCell>
        <mxCell id="12okKEDnnOAbfhYoop25-113" value="К" style="text;strokeColor=none;align=center;fillColor=none;html=1;verticalAlign=middle;whiteSpace=wrap;rounded=0;" parent="1" vertex="1">
          <mxGeometry x="1378" y="510" width="60" height="30" as="geometry" />
        </mxCell>
        <mxCell id="12okKEDnnOAbfhYoop25-114" value="ДК" style="text;strokeColor=none;align=center;fillColor=none;html=1;verticalAlign=middle;whiteSpace=wrap;rounded=0;" parent="1" vertex="1">
          <mxGeometry x="598" y="435" width="60" height="30" as="geometry" />
        </mxCell>
        <mxCell id="12okKEDnnOAbfhYoop25-115" value="Д" style="text;strokeColor=none;align=center;fillColor=none;html=1;verticalAlign=middle;whiteSpace=wrap;rounded=0;" parent="1" vertex="1">
          <mxGeometry x="725" y="433" width="60" height="30" as="geometry" />
        </mxCell>
        <mxCell id="12okKEDnnOAbfhYoop25-116" value="Пользователи" style="text;strokeColor=none;align=center;fillColor=none;html=1;verticalAlign=middle;whiteSpace=wrap;rounded=0;" parent="1" vertex="1">
          <mxGeometry x="638" y="456" width="91" height="30" as="geometry" />
        </mxCell>
        <mxCell id="12okKEDnnOAbfhYoop25-117" value="msk-pavlovskaya-teyuboglu-sw-1" style="text;strokeColor=none;align=center;fillColor=none;html=1;verticalAlign=middle;whiteSpace=wrap;rounded=0;" parent="1" vertex="1">
          <mxGeometry x="645" y="41" width="213" height="30" as="geometry" />
        </mxCell>
        <mxCell id="12okKEDnnOAbfhYoop25-118" value="msk-donskaya-teyuboglu-sw-1" style="text;strokeColor=none;align=center;fillColor=none;html=1;verticalAlign=middle;whiteSpace=wrap;rounded=0;" parent="1" vertex="1">
          <mxGeometry x="1516.5" y="37" width="213" height="30" as="geometry" />
        </mxCell>
        <mxCell id="12okKEDnnOAbfhYoop25-119" value="msk-donskaya-teyuboglu-sw-2" style="text;strokeColor=none;align=center;fillColor=none;html=1;verticalAlign=middle;whiteSpace=wrap;rounded=0;" parent="1" vertex="1">
          <mxGeometry x="1916" y="37" width="213" height="30" as="geometry" />
        </mxCell>
        <mxCell id="12okKEDnnOAbfhYoop25-120" value="msk-donskaya-teyuboglu-sw-3" style="text;strokeColor=none;align=center;fillColor=none;html=1;verticalAlign=middle;whiteSpace=wrap;rounded=0;" parent="1" vertex="1">
          <mxGeometry x="1925" y="323.5" width="213" height="30" as="geometry" />
        </mxCell>
        <mxCell id="12okKEDnnOAbfhYoop25-121" value="msk-donskaya-teyuboglu-sw-4" style="text;strokeColor=none;align=center;fillColor=none;html=1;verticalAlign=middle;whiteSpace=wrap;rounded=0;" parent="1" vertex="1">
          <mxGeometry x="1485" y="204.75" width="213" height="30" as="geometry" />
        </mxCell>
        <mxCell id="12okKEDnnOAbfhYoop25-127" value="2,3,101,102,103,104" style="text;strokeColor=none;align=center;fillColor=none;html=1;verticalAlign=middle;whiteSpace=wrap;rounded=0;" parent="1" vertex="1">
          <mxGeometry x="1483" y="-6.5" width="131" height="30" as="geometry" />
        </mxCell>
        <mxCell id="12okKEDnnOAbfhYoop25-129" value="2,3" style="text;strokeColor=none;align=center;fillColor=none;html=1;verticalAlign=middle;whiteSpace=wrap;rounded=0;" parent="1" vertex="1">
          <mxGeometry x="1570" y="72" width="60" height="30" as="geometry" />
        </mxCell>
        <mxCell id="12okKEDnnOAbfhYoop25-139" value="msk-donskaya-teyuboglu-gw-1" style="text;strokeColor=none;align=center;fillColor=none;html=1;verticalAlign=middle;whiteSpace=wrap;rounded=0;" parent="1" vertex="1">
          <mxGeometry x="1385" y="-36.5" width="213" height="30" as="geometry" />
        </mxCell>
        <mxCell id="12okKEDnnOAbfhYoop25-140" value="msk-donskaya-teyuboglu-gw-1" style="text;strokeColor=none;align=center;fillColor=none;html=1;verticalAlign=middle;whiteSpace=wrap;rounded=0;" parent="1" vertex="1">
          <mxGeometry x="-850" y="-22" width="213" height="30" as="geometry" />
        </mxCell>
        <mxCell id="12okKEDnnOAbfhYoop25-141" value="101,2,104" style="text;strokeColor=none;align=center;fillColor=none;html=1;verticalAlign=middle;whiteSpace=wrap;rounded=0;" parent="1" vertex="1">
          <mxGeometry x="1318" y="74" width="125" height="30" as="geometry" />
        </mxCell>
        <mxCell id="12okKEDnnOAbfhYoop25-142" value="104" style="text;strokeColor=none;align=center;fillColor=none;html=1;verticalAlign=middle;whiteSpace=wrap;rounded=0;" parent="1" vertex="1">
          <mxGeometry x="1627" y="281" width="43" height="30" as="geometry" />
        </mxCell>
        <mxCell id="12okKEDnnOAbfhYoop25-143" value="103" style="text;strokeColor=none;align=center;fillColor=none;html=1;verticalAlign=middle;whiteSpace=wrap;rounded=0;" parent="1" vertex="1">
          <mxGeometry x="1535" y="292" width="43" height="30" as="geometry" />
        </mxCell>
        <mxCell id="12okKEDnnOAbfhYoop25-144" value="102" style="text;strokeColor=none;align=center;fillColor=none;html=1;verticalAlign=middle;whiteSpace=wrap;rounded=0;" parent="1" vertex="1">
          <mxGeometry x="1440" y="290" width="43" height="30" as="geometry" />
        </mxCell>
        <mxCell id="12okKEDnnOAbfhYoop25-145" value="101" style="text;strokeColor=none;align=center;fillColor=none;html=1;verticalAlign=middle;whiteSpace=wrap;rounded=0;" parent="1" vertex="1">
          <mxGeometry x="1318" y="277.75" width="43" height="30" as="geometry" />
        </mxCell>
        <mxCell id="12okKEDnnOAbfhYoop25-146" value="2,3" style="text;strokeColor=none;align=center;fillColor=none;html=1;verticalAlign=middle;whiteSpace=wrap;rounded=0;" parent="1" vertex="1">
          <mxGeometry x="1908" y="182" width="60" height="30" as="geometry" />
        </mxCell>
        <mxCell id="12okKEDnnOAbfhYoop25-147" value="3" style="text;strokeColor=none;align=center;fillColor=none;html=1;verticalAlign=middle;whiteSpace=wrap;rounded=0;" parent="1" vertex="1">
          <mxGeometry x="1976" y="275" width="60" height="30" as="geometry" />
        </mxCell>
        <mxCell id="12okKEDnnOAbfhYoop25-148" value="3" style="text;strokeColor=none;align=center;fillColor=none;html=1;verticalAlign=middle;whiteSpace=wrap;rounded=0;" parent="1" vertex="1">
          <mxGeometry x="1968" y="72" width="60" height="30" as="geometry" />
        </mxCell>
        <mxCell id="12okKEDnnOAbfhYoop25-149" value="101" style="text;strokeColor=none;align=center;fillColor=none;html=1;verticalAlign=middle;whiteSpace=wrap;rounded=0;" parent="1" vertex="1">
          <mxGeometry x="650" y="158.5" width="43" height="30" as="geometry" />
        </mxCell>
        <mxCell id="12okKEDnnOAbfhYoop25-150" value="104" style="text;strokeColor=none;align=center;fillColor=none;html=1;verticalAlign=middle;whiteSpace=wrap;rounded=0;" parent="1" vertex="1">
          <mxGeometry x="730" y="142" width="43" height="30" as="geometry" />
        </mxCell>
        <mxCell id="12okKEDnnOAbfhYoop25-174" style="edgeStyle=orthogonalEdgeStyle;rounded=0;orthogonalLoop=1;jettySize=auto;html=1;" parent="1" source="12okKEDnnOAbfhYoop25-151" target="12okKEDnnOAbfhYoop25-155" edge="1">
          <mxGeometry relative="1" as="geometry" />
        </mxCell>
        <mxCell id="12okKEDnnOAbfhYoop25-175" style="edgeStyle=orthogonalEdgeStyle;rounded=0;orthogonalLoop=1;jettySize=auto;html=1;" parent="1" source="12okKEDnnOAbfhYoop25-151" target="12okKEDnnOAbfhYoop25-158" edge="1">
          <mxGeometry relative="1" as="geometry">
            <Array as="points">
              <mxPoint x="3761" y="-762" />
              <mxPoint x="3761" y="-762" />
            </Array>
          </mxGeometry>
        </mxCell>
        <mxCell id="12okKEDnnOAbfhYoop25-176" style="edgeStyle=orthogonalEdgeStyle;rounded=0;orthogonalLoop=1;jettySize=auto;html=1;entryX=0.729;entryY=0.856;entryDx=0;entryDy=0;entryPerimeter=0;" parent="1" source="12okKEDnnOAbfhYoop25-151" target="12okKEDnnOAbfhYoop25-156" edge="1">
          <mxGeometry relative="1" as="geometry">
            <Array as="points">
              <mxPoint x="3612" y="-843" />
              <mxPoint x="3471" y="-843" />
              <mxPoint x="3471" y="-948" />
              <mxPoint x="3388" y="-948" />
            </Array>
          </mxGeometry>
        </mxCell>
        <mxCell id="12okKEDnnOAbfhYoop25-151" value="" style="shape=mxgraph.cisco.routers.router;html=1;pointerEvents=1;dashed=0;fillColor=#036897;strokeColor=#ffffff;strokeWidth=2;verticalLabelPosition=bottom;verticalAlign=top;align=center;outlineConnect=0;" parent="1" vertex="1">
          <mxGeometry x="3593" y="-789" width="104" height="54" as="geometry" />
        </mxCell>
        <mxCell id="12okKEDnnOAbfhYoop25-152" value="" style="points=[[0,0.64,0],[0.2,0.15,0],[0.4,0.01,0],[0.79,0.25,0],[1,0.65,0],[0.8,0.86,0],[0.41,1,0],[0.16,0.86,0]];verticalLabelPosition=bottom;sketch=0;html=1;verticalAlign=top;aspect=fixed;align=center;pointerEvents=1;shape=mxgraph.cisco19.cloud;fillColor=#186180;strokeColor=none;" parent="1" vertex="1">
          <mxGeometry x="3243.99" y="-633" width="255.01" height="153" as="geometry" />
        </mxCell>
        <mxCell id="12okKEDnnOAbfhYoop25-173" style="edgeStyle=orthogonalEdgeStyle;rounded=0;orthogonalLoop=1;jettySize=auto;html=1;entryX=0.196;entryY=0.196;entryDx=0;entryDy=0;entryPerimeter=0;" parent="1" source="12okKEDnnOAbfhYoop25-153" target="12okKEDnnOAbfhYoop25-157" edge="1">
          <mxGeometry relative="1" as="geometry">
            <Array as="points">
              <mxPoint x="3721" y="-740" />
              <mxPoint x="3721" y="-598" />
            </Array>
          </mxGeometry>
        </mxCell>
        <mxCell id="12okKEDnnOAbfhYoop25-153" value="2811" style="text;strokeColor=none;align=center;fillColor=none;html=1;verticalAlign=middle;whiteSpace=wrap;rounded=0;" parent="1" vertex="1">
          <mxGeometry x="3622.67" y="-761" width="44.67" height="30" as="geometry" />
        </mxCell>
        <mxCell id="12okKEDnnOAbfhYoop25-154" value="msk-donskaya-teyuboglu-gw-1" style="text;strokeColor=none;align=center;fillColor=none;html=1;verticalAlign=middle;whiteSpace=wrap;rounded=0;" parent="1" vertex="1">
          <mxGeometry x="3538.5" y="-827" width="213" height="30" as="geometry" />
        </mxCell>
        <mxCell id="12okKEDnnOAbfhYoop25-155" value="" style="points=[[0,0.64,0],[0.2,0.15,0],[0.4,0.01,0],[0.79,0.25,0],[1,0.65,0],[0.8,0.86,0],[0.41,1,0],[0.16,0.86,0]];verticalLabelPosition=bottom;sketch=0;html=1;verticalAlign=top;aspect=fixed;align=center;pointerEvents=1;shape=mxgraph.cisco19.cloud;fillColor=#186180;strokeColor=none;" parent="1" vertex="1">
          <mxGeometry x="3158" y="-855" width="255.01" height="153" as="geometry" />
        </mxCell>
        <mxCell id="12okKEDnnOAbfhYoop25-156" value="" style="points=[[0,0.64,0],[0.2,0.15,0],[0.4,0.01,0],[0.79,0.25,0],[1,0.65,0],[0.8,0.86,0],[0.41,1,0],[0.16,0.86,0]];verticalLabelPosition=bottom;sketch=0;html=1;verticalAlign=top;aspect=fixed;align=center;pointerEvents=1;shape=mxgraph.cisco19.cloud;fillColor=#186180;strokeColor=none;" parent="1" vertex="1">
          <mxGeometry x="3202" y="-1077" width="255.01" height="153" as="geometry" />
        </mxCell>
        <mxCell id="12okKEDnnOAbfhYoop25-157" value="" style="points=[[0,0.64,0],[0.2,0.15,0],[0.4,0.01,0],[0.79,0.25,0],[1,0.65,0],[0.8,0.86,0],[0.41,1,0],[0.16,0.86,0]];verticalLabelPosition=bottom;sketch=0;html=1;verticalAlign=top;aspect=fixed;align=center;pointerEvents=1;shape=mxgraph.cisco19.cloud;fillColor=#186180;strokeColor=none;" parent="1" vertex="1">
          <mxGeometry x="3762" y="-628" width="255.01" height="153" as="geometry" />
        </mxCell>
        <mxCell id="12okKEDnnOAbfhYoop25-158" value="" style="points=[[0,0.64,0],[0.2,0.15,0],[0.4,0.01,0],[0.79,0.25,0],[1,0.65,0],[0.8,0.86,0],[0.41,1,0],[0.16,0.86,0]];verticalLabelPosition=bottom;sketch=0;html=1;verticalAlign=top;aspect=fixed;align=center;pointerEvents=1;shape=mxgraph.cisco19.cloud;fillColor=#186180;strokeColor=none;" parent="1" vertex="1">
          <mxGeometry x="3823" y="-855" width="255.01" height="153" as="geometry" />
        </mxCell>
        <mxCell id="12okKEDnnOAbfhYoop25-159" value="" style="points=[[0,0.64,0],[0.2,0.15,0],[0.4,0.01,0],[0.79,0.25,0],[1,0.65,0],[0.8,0.86,0],[0.41,1,0],[0.16,0.86,0]];verticalLabelPosition=bottom;sketch=0;html=1;verticalAlign=top;aspect=fixed;align=center;pointerEvents=1;shape=mxgraph.cisco19.cloud;fillColor=#186180;strokeColor=none;" parent="1" vertex="1">
          <mxGeometry x="3739" y="-1081" width="255.01" height="153" as="geometry" />
        </mxCell>
        <mxCell id="12okKEDnnOAbfhYoop25-160" value="Серверная ферма" style="text;strokeColor=none;align=center;fillColor=none;html=1;verticalAlign=middle;whiteSpace=wrap;rounded=0;" parent="1" vertex="1">
          <mxGeometry x="3258.01" y="-1038" width="126" height="30" as="geometry" />
        </mxCell>
        <mxCell id="12okKEDnnOAbfhYoop25-161" value="10.128.0.0/24" style="text;strokeColor=none;align=center;fillColor=none;html=1;verticalAlign=middle;whiteSpace=wrap;rounded=0;" parent="1" vertex="1">
          <mxGeometry x="3254.01" y="-992" width="123.5" height="30" as="geometry" />
        </mxCell>
        <mxCell id="12okKEDnnOAbfhYoop25-162" value="Сеть управления" style="text;strokeColor=none;align=center;fillColor=none;html=1;verticalAlign=middle;whiteSpace=wrap;rounded=0;" parent="1" vertex="1">
          <mxGeometry x="3211" y="-816.5" width="126" height="30" as="geometry" />
        </mxCell>
        <mxCell id="12okKEDnnOAbfhYoop25-163" value="10.128.1.0/24" style="text;strokeColor=none;align=center;fillColor=none;html=1;verticalAlign=middle;whiteSpace=wrap;rounded=0;" parent="1" vertex="1">
          <mxGeometry x="3207" y="-770.5" width="123.5" height="30" as="geometry" />
        </mxCell>
        <mxCell id="12okKEDnnOAbfhYoop25-164" value="ДК" style="text;strokeColor=none;align=center;fillColor=none;html=1;verticalAlign=middle;whiteSpace=wrap;rounded=0;" parent="1" vertex="1">
          <mxGeometry x="3293.5" y="-594.5" width="126" height="30" as="geometry" />
        </mxCell>
        <mxCell id="12okKEDnnOAbfhYoop25-165" value="10.128.3.0/24" style="text;strokeColor=none;align=center;fillColor=none;html=1;verticalAlign=middle;whiteSpace=wrap;rounded=0;" parent="1" vertex="1">
          <mxGeometry x="3289.5" y="-548.5" width="123.5" height="30" as="geometry" />
        </mxCell>
        <mxCell id="12okKEDnnOAbfhYoop25-166" value="Кафедры (К)" style="text;strokeColor=none;align=center;fillColor=none;html=1;verticalAlign=middle;whiteSpace=wrap;rounded=0;" parent="1" vertex="1">
          <mxGeometry x="3783" y="-1042.5" width="126" height="30" as="geometry" />
        </mxCell>
        <mxCell id="12okKEDnnOAbfhYoop25-167" value="10.128.4.0/24" style="text;strokeColor=none;align=center;fillColor=none;html=1;verticalAlign=middle;whiteSpace=wrap;rounded=0;" parent="1" vertex="1">
          <mxGeometry x="3779" y="-996.5" width="123.5" height="30" as="geometry" />
        </mxCell>
        <mxCell id="12okKEDnnOAbfhYoop25-168" value="Администрация (А)" style="text;strokeColor=none;align=center;fillColor=none;html=1;verticalAlign=middle;whiteSpace=wrap;rounded=0;" parent="1" vertex="1">
          <mxGeometry x="3873" y="-820" width="126" height="30" as="geometry" />
        </mxCell>
        <mxCell id="12okKEDnnOAbfhYoop25-169" value="10.128.5.0/24" style="text;strokeColor=none;align=center;fillColor=none;html=1;verticalAlign=middle;whiteSpace=wrap;rounded=0;" parent="1" vertex="1">
          <mxGeometry x="3869" y="-774" width="123.5" height="30" as="geometry" />
        </mxCell>
        <mxCell id="12okKEDnnOAbfhYoop25-170" value="Другие пользователи" style="text;strokeColor=none;align=center;fillColor=none;html=1;verticalAlign=middle;whiteSpace=wrap;rounded=0;" parent="1" vertex="1">
          <mxGeometry x="3812" y="-589.5" width="126" height="30" as="geometry" />
        </mxCell>
        <mxCell id="12okKEDnnOAbfhYoop25-171" value="10.128.6.0/24" style="text;strokeColor=none;align=center;fillColor=none;html=1;verticalAlign=middle;whiteSpace=wrap;rounded=0;" parent="1" vertex="1">
          <mxGeometry x="3808" y="-543.5" width="123.5" height="30" as="geometry" />
        </mxCell>
        <mxCell id="12okKEDnnOAbfhYoop25-172" style="edgeStyle=orthogonalEdgeStyle;rounded=0;orthogonalLoop=1;jettySize=auto;html=1;entryX=0.79;entryY=0.25;entryDx=0;entryDy=0;entryPerimeter=0;" parent="1" source="12okKEDnnOAbfhYoop25-151" target="12okKEDnnOAbfhYoop25-152" edge="1">
          <mxGeometry relative="1" as="geometry">
            <Array as="points">
              <mxPoint x="3606" y="-703" />
              <mxPoint x="3445" y="-703" />
            </Array>
          </mxGeometry>
        </mxCell>
        <mxCell id="12okKEDnnOAbfhYoop25-177" style="edgeStyle=orthogonalEdgeStyle;rounded=0;orthogonalLoop=1;jettySize=auto;html=1;" parent="1" source="12okKEDnnOAbfhYoop25-151" edge="1">
          <mxGeometry relative="1" as="geometry">
            <mxPoint x="3791" y="-939" as="targetPoint" />
            <Array as="points">
              <mxPoint x="3791" y="-786" />
            </Array>
          </mxGeometry>
        </mxCell>
        <mxCell id="12okKEDnnOAbfhYoop25-178" value=".1" style="text;strokeColor=none;align=center;fillColor=none;html=1;verticalAlign=middle;whiteSpace=wrap;rounded=0;" parent="1" vertex="1">
          <mxGeometry x="3531" y="-789" width="60" height="30" as="geometry" />
        </mxCell>
        <mxCell id="12okKEDnnOAbfhYoop25-179" value=".1" style="text;strokeColor=none;align=center;fillColor=none;html=1;verticalAlign=middle;whiteSpace=wrap;rounded=0;" parent="1" vertex="1">
          <mxGeometry x="3700" y="-786.5" width="60" height="30" as="geometry" />
        </mxCell>
        <mxCell id="12okKEDnnOAbfhYoop25-180" style="edgeStyle=orthogonalEdgeStyle;rounded=0;orthogonalLoop=1;jettySize=auto;html=1;" parent="1" source="12okKEDnnOAbfhYoop25-183" target="12okKEDnnOAbfhYoop25-188" edge="1">
          <mxGeometry relative="1" as="geometry" />
        </mxCell>
        <mxCell id="12okKEDnnOAbfhYoop25-181" style="edgeStyle=orthogonalEdgeStyle;rounded=0;orthogonalLoop=1;jettySize=auto;html=1;" parent="1" source="12okKEDnnOAbfhYoop25-183" target="12okKEDnnOAbfhYoop25-191" edge="1">
          <mxGeometry relative="1" as="geometry">
            <Array as="points">
              <mxPoint x="4885" y="-767" />
              <mxPoint x="4885" y="-767" />
            </Array>
          </mxGeometry>
        </mxCell>
        <mxCell id="12okKEDnnOAbfhYoop25-182" style="edgeStyle=orthogonalEdgeStyle;rounded=0;orthogonalLoop=1;jettySize=auto;html=1;" parent="1" source="12okKEDnnOAbfhYoop25-183" target="12okKEDnnOAbfhYoop25-189" edge="1">
          <mxGeometry relative="1" as="geometry">
            <Array as="points">
              <mxPoint x="4769" y="-848" />
              <mxPoint x="4595" y="-848" />
            </Array>
          </mxGeometry>
        </mxCell>
        <mxCell id="12okKEDnnOAbfhYoop25-183" value="" style="shape=mxgraph.cisco.routers.router;html=1;pointerEvents=1;dashed=0;fillColor=#036897;strokeColor=#ffffff;strokeWidth=2;verticalLabelPosition=bottom;verticalAlign=top;align=center;outlineConnect=0;" parent="1" vertex="1">
          <mxGeometry x="4717" y="-794" width="104" height="54" as="geometry" />
        </mxCell>
        <mxCell id="12okKEDnnOAbfhYoop25-184" value="" style="points=[[0,0.64,0],[0.2,0.15,0],[0.4,0.01,0],[0.79,0.25,0],[1,0.65,0],[0.8,0.86,0],[0.41,1,0],[0.16,0.86,0]];verticalLabelPosition=bottom;sketch=0;html=1;verticalAlign=top;aspect=fixed;align=center;pointerEvents=1;shape=mxgraph.cisco19.cloud;fillColor=#186180;strokeColor=none;" parent="1" vertex="1">
          <mxGeometry x="4367.99" y="-638" width="255.01" height="153" as="geometry" />
        </mxCell>
        <mxCell id="12okKEDnnOAbfhYoop25-185" style="edgeStyle=orthogonalEdgeStyle;rounded=0;orthogonalLoop=1;jettySize=auto;html=1;entryX=0.196;entryY=0.196;entryDx=0;entryDy=0;entryPerimeter=0;" parent="1" source="12okKEDnnOAbfhYoop25-186" target="12okKEDnnOAbfhYoop25-190" edge="1">
          <mxGeometry relative="1" as="geometry">
            <Array as="points">
              <mxPoint x="4845" y="-745" />
              <mxPoint x="4845" y="-603" />
            </Array>
          </mxGeometry>
        </mxCell>
        <mxCell id="12okKEDnnOAbfhYoop25-186" value="2811" style="text;strokeColor=none;align=center;fillColor=none;html=1;verticalAlign=middle;whiteSpace=wrap;rounded=0;" parent="1" vertex="1">
          <mxGeometry x="4746.67" y="-766" width="44.67" height="30" as="geometry" />
        </mxCell>
        <mxCell id="12okKEDnnOAbfhYoop25-187" value="msk-donskaya-teyuboglu-gw-1" style="text;strokeColor=none;align=center;fillColor=none;html=1;verticalAlign=middle;whiteSpace=wrap;rounded=0;" parent="1" vertex="1">
          <mxGeometry x="4662.5" y="-832" width="213" height="30" as="geometry" />
        </mxCell>
        <mxCell id="12okKEDnnOAbfhYoop25-188" value="" style="points=[[0,0.64,0],[0.2,0.15,0],[0.4,0.01,0],[0.79,0.25,0],[1,0.65,0],[0.8,0.86,0],[0.41,1,0],[0.16,0.86,0]];verticalLabelPosition=bottom;sketch=0;html=1;verticalAlign=top;aspect=fixed;align=center;pointerEvents=1;shape=mxgraph.cisco19.cloud;fillColor=#186180;strokeColor=none;" parent="1" vertex="1">
          <mxGeometry x="4282" y="-860" width="255.01" height="153" as="geometry" />
        </mxCell>
        <mxCell id="12okKEDnnOAbfhYoop25-189" value="" style="points=[[0,0.64,0],[0.2,0.15,0],[0.4,0.01,0],[0.79,0.25,0],[1,0.65,0],[0.8,0.86,0],[0.41,1,0],[0.16,0.86,0]];verticalLabelPosition=bottom;sketch=0;html=1;verticalAlign=top;aspect=fixed;align=center;pointerEvents=1;shape=mxgraph.cisco19.cloud;fillColor=#186180;strokeColor=none;" parent="1" vertex="1">
          <mxGeometry x="4367.99" y="-1084" width="255.01" height="153" as="geometry" />
        </mxCell>
        <mxCell id="12okKEDnnOAbfhYoop25-190" value="" style="points=[[0,0.64,0],[0.2,0.15,0],[0.4,0.01,0],[0.79,0.25,0],[1,0.65,0],[0.8,0.86,0],[0.41,1,0],[0.16,0.86,0]];verticalLabelPosition=bottom;sketch=0;html=1;verticalAlign=top;aspect=fixed;align=center;pointerEvents=1;shape=mxgraph.cisco19.cloud;fillColor=#186180;strokeColor=none;" parent="1" vertex="1">
          <mxGeometry x="4886" y="-633" width="255.01" height="153" as="geometry" />
        </mxCell>
        <mxCell id="12okKEDnnOAbfhYoop25-191" value="" style="points=[[0,0.64,0],[0.2,0.15,0],[0.4,0.01,0],[0.79,0.25,0],[1,0.65,0],[0.8,0.86,0],[0.41,1,0],[0.16,0.86,0]];verticalLabelPosition=bottom;sketch=0;html=1;verticalAlign=top;aspect=fixed;align=center;pointerEvents=1;shape=mxgraph.cisco19.cloud;fillColor=#186180;strokeColor=none;" parent="1" vertex="1">
          <mxGeometry x="4947" y="-860" width="255.01" height="153" as="geometry" />
        </mxCell>
        <mxCell id="12okKEDnnOAbfhYoop25-192" value="" style="points=[[0,0.64,0],[0.2,0.15,0],[0.4,0.01,0],[0.79,0.25,0],[1,0.65,0],[0.8,0.86,0],[0.41,1,0],[0.16,0.86,0]];verticalLabelPosition=bottom;sketch=0;html=1;verticalAlign=top;aspect=fixed;align=center;pointerEvents=1;shape=mxgraph.cisco19.cloud;fillColor=#186180;strokeColor=none;" parent="1" vertex="1">
          <mxGeometry x="4863" y="-1086" width="255.01" height="153" as="geometry" />
        </mxCell>
        <mxCell id="12okKEDnnOAbfhYoop25-193" value="Серверная ферма" style="text;strokeColor=none;align=center;fillColor=none;html=1;verticalAlign=middle;whiteSpace=wrap;rounded=0;" parent="1" vertex="1">
          <mxGeometry x="4424" y="-1045" width="126" height="30" as="geometry" />
        </mxCell>
        <mxCell id="12okKEDnnOAbfhYoop25-194" value="172.16.0.0/24" style="text;strokeColor=none;align=center;fillColor=none;html=1;verticalAlign=middle;whiteSpace=wrap;rounded=0;" parent="1" vertex="1">
          <mxGeometry x="4420" y="-999" width="123.5" height="30" as="geometry" />
        </mxCell>
        <mxCell id="12okKEDnnOAbfhYoop25-195" value="Сеть управления" style="text;strokeColor=none;align=center;fillColor=none;html=1;verticalAlign=middle;whiteSpace=wrap;rounded=0;" parent="1" vertex="1">
          <mxGeometry x="4335" y="-821.5" width="126" height="30" as="geometry" />
        </mxCell>
        <mxCell id="12okKEDnnOAbfhYoop25-196" value="172.16.1.0/24" style="text;strokeColor=none;align=center;fillColor=none;html=1;verticalAlign=middle;whiteSpace=wrap;rounded=0;" parent="1" vertex="1">
          <mxGeometry x="4331" y="-775.5" width="123.5" height="30" as="geometry" />
        </mxCell>
        <mxCell id="12okKEDnnOAbfhYoop25-197" value="ДК" style="text;strokeColor=none;align=center;fillColor=none;html=1;verticalAlign=middle;whiteSpace=wrap;rounded=0;" parent="1" vertex="1">
          <mxGeometry x="4417.5" y="-599.5" width="126" height="30" as="geometry" />
        </mxCell>
        <mxCell id="12okKEDnnOAbfhYoop25-198" value="172.16.3.0/24" style="text;strokeColor=none;align=center;fillColor=none;html=1;verticalAlign=middle;whiteSpace=wrap;rounded=0;" parent="1" vertex="1">
          <mxGeometry x="4413.5" y="-553.5" width="123.5" height="30" as="geometry" />
        </mxCell>
        <mxCell id="12okKEDnnOAbfhYoop25-199" value="Кафедры (К)" style="text;strokeColor=none;align=center;fillColor=none;html=1;verticalAlign=middle;whiteSpace=wrap;rounded=0;" parent="1" vertex="1">
          <mxGeometry x="4907" y="-1047.5" width="126" height="30" as="geometry" />
        </mxCell>
        <mxCell id="12okKEDnnOAbfhYoop25-200" value="172.16.4.0/24" style="text;strokeColor=none;align=center;fillColor=none;html=1;verticalAlign=middle;whiteSpace=wrap;rounded=0;" parent="1" vertex="1">
          <mxGeometry x="4903" y="-1001.5" width="123.5" height="30" as="geometry" />
        </mxCell>
        <mxCell id="12okKEDnnOAbfhYoop25-201" value="Администрация (А)" style="text;strokeColor=none;align=center;fillColor=none;html=1;verticalAlign=middle;whiteSpace=wrap;rounded=0;" parent="1" vertex="1">
          <mxGeometry x="4997" y="-825" width="126" height="30" as="geometry" />
        </mxCell>
        <mxCell id="12okKEDnnOAbfhYoop25-202" value="172.16.5.0/24" style="text;strokeColor=none;align=center;fillColor=none;html=1;verticalAlign=middle;whiteSpace=wrap;rounded=0;" parent="1" vertex="1">
          <mxGeometry x="4993" y="-779" width="123.5" height="30" as="geometry" />
        </mxCell>
        <mxCell id="12okKEDnnOAbfhYoop25-203" value="Другие пользователи" style="text;strokeColor=none;align=center;fillColor=none;html=1;verticalAlign=middle;whiteSpace=wrap;rounded=0;" parent="1" vertex="1">
          <mxGeometry x="4936" y="-594.5" width="126" height="30" as="geometry" />
        </mxCell>
        <mxCell id="12okKEDnnOAbfhYoop25-204" value="172.16.6.0/24" style="text;strokeColor=none;align=center;fillColor=none;html=1;verticalAlign=middle;whiteSpace=wrap;rounded=0;" parent="1" vertex="1">
          <mxGeometry x="4932" y="-548.5" width="123.5" height="30" as="geometry" />
        </mxCell>
        <mxCell id="12okKEDnnOAbfhYoop25-205" style="edgeStyle=orthogonalEdgeStyle;rounded=0;orthogonalLoop=1;jettySize=auto;html=1;entryX=0.79;entryY=0.25;entryDx=0;entryDy=0;entryPerimeter=0;" parent="1" source="12okKEDnnOAbfhYoop25-183" target="12okKEDnnOAbfhYoop25-184" edge="1">
          <mxGeometry relative="1" as="geometry">
            <Array as="points">
              <mxPoint x="4730" y="-708" />
              <mxPoint x="4569" y="-708" />
            </Array>
          </mxGeometry>
        </mxCell>
        <mxCell id="12okKEDnnOAbfhYoop25-206" style="edgeStyle=orthogonalEdgeStyle;rounded=0;orthogonalLoop=1;jettySize=auto;html=1;" parent="1" source="12okKEDnnOAbfhYoop25-183" edge="1">
          <mxGeometry relative="1" as="geometry">
            <mxPoint x="4915" y="-944" as="targetPoint" />
            <Array as="points">
              <mxPoint x="4915" y="-791" />
            </Array>
          </mxGeometry>
        </mxCell>
        <mxCell id="12okKEDnnOAbfhYoop25-207" value=".1" style="text;strokeColor=none;align=center;fillColor=none;html=1;verticalAlign=middle;whiteSpace=wrap;rounded=0;" parent="1" vertex="1">
          <mxGeometry x="4655" y="-794" width="60" height="30" as="geometry" />
        </mxCell>
        <mxCell id="12okKEDnnOAbfhYoop25-208" value=".1" style="text;strokeColor=none;align=center;fillColor=none;html=1;verticalAlign=middle;whiteSpace=wrap;rounded=0;" parent="1" vertex="1">
          <mxGeometry x="4824" y="-791.5" width="60" height="30" as="geometry" />
        </mxCell>
        <mxCell id="idymLwsRYckYHOoIfN-_-1" style="edgeStyle=orthogonalEdgeStyle;rounded=0;orthogonalLoop=1;jettySize=auto;html=1;" parent="1" source="idymLwsRYckYHOoIfN-_-4" target="idymLwsRYckYHOoIfN-_-9" edge="1">
          <mxGeometry relative="1" as="geometry" />
        </mxCell>
        <mxCell id="idymLwsRYckYHOoIfN-_-2" style="edgeStyle=orthogonalEdgeStyle;rounded=0;orthogonalLoop=1;jettySize=auto;html=1;" parent="1" source="idymLwsRYckYHOoIfN-_-4" target="idymLwsRYckYHOoIfN-_-12" edge="1">
          <mxGeometry relative="1" as="geometry">
            <Array as="points">
              <mxPoint x="5886" y="-779" />
              <mxPoint x="5886" y="-779" />
            </Array>
          </mxGeometry>
        </mxCell>
        <mxCell id="idymLwsRYckYHOoIfN-_-3" style="edgeStyle=orthogonalEdgeStyle;rounded=0;orthogonalLoop=1;jettySize=auto;html=1;" parent="1" source="idymLwsRYckYHOoIfN-_-4" target="idymLwsRYckYHOoIfN-_-10" edge="1">
          <mxGeometry relative="1" as="geometry">
            <Array as="points">
              <mxPoint x="5770" y="-860" />
              <mxPoint x="5596" y="-860" />
            </Array>
          </mxGeometry>
        </mxCell>
        <mxCell id="idymLwsRYckYHOoIfN-_-4" value="" style="shape=mxgraph.cisco.routers.router;html=1;pointerEvents=1;dashed=0;fillColor=#036897;strokeColor=#ffffff;strokeWidth=2;verticalLabelPosition=bottom;verticalAlign=top;align=center;outlineConnect=0;" parent="1" vertex="1">
          <mxGeometry x="5718" y="-806" width="104" height="54" as="geometry" />
        </mxCell>
        <mxCell id="idymLwsRYckYHOoIfN-_-5" value="" style="points=[[0,0.64,0],[0.2,0.15,0],[0.4,0.01,0],[0.79,0.25,0],[1,0.65,0],[0.8,0.86,0],[0.41,1,0],[0.16,0.86,0]];verticalLabelPosition=bottom;sketch=0;html=1;verticalAlign=top;aspect=fixed;align=center;pointerEvents=1;shape=mxgraph.cisco19.cloud;fillColor=#186180;strokeColor=none;" parent="1" vertex="1">
          <mxGeometry x="5368.99" y="-650" width="255.01" height="153" as="geometry" />
        </mxCell>
        <mxCell id="idymLwsRYckYHOoIfN-_-6" style="edgeStyle=orthogonalEdgeStyle;rounded=0;orthogonalLoop=1;jettySize=auto;html=1;entryX=0.196;entryY=0.196;entryDx=0;entryDy=0;entryPerimeter=0;" parent="1" source="idymLwsRYckYHOoIfN-_-7" target="idymLwsRYckYHOoIfN-_-11" edge="1">
          <mxGeometry relative="1" as="geometry">
            <Array as="points">
              <mxPoint x="5846" y="-757" />
              <mxPoint x="5846" y="-615" />
            </Array>
          </mxGeometry>
        </mxCell>
        <mxCell id="idymLwsRYckYHOoIfN-_-7" value="2811" style="text;strokeColor=none;align=center;fillColor=none;html=1;verticalAlign=middle;whiteSpace=wrap;rounded=0;" parent="1" vertex="1">
          <mxGeometry x="5747.67" y="-778" width="44.67" height="30" as="geometry" />
        </mxCell>
        <mxCell id="idymLwsRYckYHOoIfN-_-8" value="msk-donskaya-teyuboglu-gw-1" style="text;strokeColor=none;align=center;fillColor=none;html=1;verticalAlign=middle;whiteSpace=wrap;rounded=0;" parent="1" vertex="1">
          <mxGeometry x="5663.5" y="-844" width="213" height="30" as="geometry" />
        </mxCell>
        <mxCell id="idymLwsRYckYHOoIfN-_-9" value="" style="points=[[0,0.64,0],[0.2,0.15,0],[0.4,0.01,0],[0.79,0.25,0],[1,0.65,0],[0.8,0.86,0],[0.41,1,0],[0.16,0.86,0]];verticalLabelPosition=bottom;sketch=0;html=1;verticalAlign=top;aspect=fixed;align=center;pointerEvents=1;shape=mxgraph.cisco19.cloud;fillColor=#186180;strokeColor=none;" parent="1" vertex="1">
          <mxGeometry x="5283" y="-872" width="255.01" height="153" as="geometry" />
        </mxCell>
        <mxCell id="idymLwsRYckYHOoIfN-_-10" value="" style="points=[[0,0.64,0],[0.2,0.15,0],[0.4,0.01,0],[0.79,0.25,0],[1,0.65,0],[0.8,0.86,0],[0.41,1,0],[0.16,0.86,0]];verticalLabelPosition=bottom;sketch=0;html=1;verticalAlign=top;aspect=fixed;align=center;pointerEvents=1;shape=mxgraph.cisco19.cloud;fillColor=#186180;strokeColor=none;" parent="1" vertex="1">
          <mxGeometry x="5368.99" y="-1096" width="255.01" height="153" as="geometry" />
        </mxCell>
        <mxCell id="idymLwsRYckYHOoIfN-_-11" value="" style="points=[[0,0.64,0],[0.2,0.15,0],[0.4,0.01,0],[0.79,0.25,0],[1,0.65,0],[0.8,0.86,0],[0.41,1,0],[0.16,0.86,0]];verticalLabelPosition=bottom;sketch=0;html=1;verticalAlign=top;aspect=fixed;align=center;pointerEvents=1;shape=mxgraph.cisco19.cloud;fillColor=#186180;strokeColor=none;" parent="1" vertex="1">
          <mxGeometry x="5887" y="-645" width="255.01" height="153" as="geometry" />
        </mxCell>
        <mxCell id="idymLwsRYckYHOoIfN-_-12" value="" style="points=[[0,0.64,0],[0.2,0.15,0],[0.4,0.01,0],[0.79,0.25,0],[1,0.65,0],[0.8,0.86,0],[0.41,1,0],[0.16,0.86,0]];verticalLabelPosition=bottom;sketch=0;html=1;verticalAlign=top;aspect=fixed;align=center;pointerEvents=1;shape=mxgraph.cisco19.cloud;fillColor=#186180;strokeColor=none;" parent="1" vertex="1">
          <mxGeometry x="5948" y="-872" width="255.01" height="153" as="geometry" />
        </mxCell>
        <mxCell id="idymLwsRYckYHOoIfN-_-13" value="" style="points=[[0,0.64,0],[0.2,0.15,0],[0.4,0.01,0],[0.79,0.25,0],[1,0.65,0],[0.8,0.86,0],[0.41,1,0],[0.16,0.86,0]];verticalLabelPosition=bottom;sketch=0;html=1;verticalAlign=top;aspect=fixed;align=center;pointerEvents=1;shape=mxgraph.cisco19.cloud;fillColor=#186180;strokeColor=none;" parent="1" vertex="1">
          <mxGeometry x="5864" y="-1098" width="255.01" height="153" as="geometry" />
        </mxCell>
        <mxCell id="idymLwsRYckYHOoIfN-_-14" value="Серверная ферма" style="text;strokeColor=none;align=center;fillColor=none;html=1;verticalAlign=middle;whiteSpace=wrap;rounded=0;" parent="1" vertex="1">
          <mxGeometry x="5425" y="-1057" width="126" height="30" as="geometry" />
        </mxCell>
        <mxCell id="idymLwsRYckYHOoIfN-_-15" value="192.168.0.0/24" style="text;strokeColor=none;align=center;fillColor=none;html=1;verticalAlign=middle;whiteSpace=wrap;rounded=0;" parent="1" vertex="1">
          <mxGeometry x="5421" y="-1011" width="123.5" height="30" as="geometry" />
        </mxCell>
        <mxCell id="idymLwsRYckYHOoIfN-_-16" value="Сеть управления" style="text;strokeColor=none;align=center;fillColor=none;html=1;verticalAlign=middle;whiteSpace=wrap;rounded=0;" parent="1" vertex="1">
          <mxGeometry x="5336" y="-833.5" width="126" height="30" as="geometry" />
        </mxCell>
        <mxCell id="idymLwsRYckYHOoIfN-_-17" value="192.168.1.0/24" style="text;strokeColor=none;align=center;fillColor=none;html=1;verticalAlign=middle;whiteSpace=wrap;rounded=0;" parent="1" vertex="1">
          <mxGeometry x="5332" y="-787.5" width="123.5" height="30" as="geometry" />
        </mxCell>
        <mxCell id="idymLwsRYckYHOoIfN-_-18" value="ДК" style="text;strokeColor=none;align=center;fillColor=none;html=1;verticalAlign=middle;whiteSpace=wrap;rounded=0;" parent="1" vertex="1">
          <mxGeometry x="5418.5" y="-611.5" width="126" height="30" as="geometry" />
        </mxCell>
        <mxCell id="idymLwsRYckYHOoIfN-_-19" value="192.168.3.0/24" style="text;strokeColor=none;align=center;fillColor=none;html=1;verticalAlign=middle;whiteSpace=wrap;rounded=0;" parent="1" vertex="1">
          <mxGeometry x="5414.5" y="-565.5" width="123.5" height="30" as="geometry" />
        </mxCell>
        <mxCell id="idymLwsRYckYHOoIfN-_-20" value="Кафедры (К)" style="text;strokeColor=none;align=center;fillColor=none;html=1;verticalAlign=middle;whiteSpace=wrap;rounded=0;" parent="1" vertex="1">
          <mxGeometry x="5908" y="-1059.5" width="126" height="30" as="geometry" />
        </mxCell>
        <mxCell id="idymLwsRYckYHOoIfN-_-21" value="192.168.4.0/24" style="text;strokeColor=none;align=center;fillColor=none;html=1;verticalAlign=middle;whiteSpace=wrap;rounded=0;" parent="1" vertex="1">
          <mxGeometry x="5904" y="-1013.5" width="123.5" height="30" as="geometry" />
        </mxCell>
        <mxCell id="idymLwsRYckYHOoIfN-_-22" value="Администрация (А)" style="text;strokeColor=none;align=center;fillColor=none;html=1;verticalAlign=middle;whiteSpace=wrap;rounded=0;" parent="1" vertex="1">
          <mxGeometry x="5998" y="-837" width="126" height="30" as="geometry" />
        </mxCell>
        <mxCell id="idymLwsRYckYHOoIfN-_-23" value="192.168.5.0/24" style="text;strokeColor=none;align=center;fillColor=none;html=1;verticalAlign=middle;whiteSpace=wrap;rounded=0;" parent="1" vertex="1">
          <mxGeometry x="5994" y="-791" width="123.5" height="30" as="geometry" />
        </mxCell>
        <mxCell id="idymLwsRYckYHOoIfN-_-24" value="Другие пользователи" style="text;strokeColor=none;align=center;fillColor=none;html=1;verticalAlign=middle;whiteSpace=wrap;rounded=0;" parent="1" vertex="1">
          <mxGeometry x="5937" y="-606.5" width="126" height="30" as="geometry" />
        </mxCell>
        <mxCell id="idymLwsRYckYHOoIfN-_-25" value="192.168.6.0/24" style="text;strokeColor=none;align=center;fillColor=none;html=1;verticalAlign=middle;whiteSpace=wrap;rounded=0;" parent="1" vertex="1">
          <mxGeometry x="5933" y="-560.5" width="123.5" height="30" as="geometry" />
        </mxCell>
        <mxCell id="idymLwsRYckYHOoIfN-_-26" style="edgeStyle=orthogonalEdgeStyle;rounded=0;orthogonalLoop=1;jettySize=auto;html=1;entryX=0.79;entryY=0.25;entryDx=0;entryDy=0;entryPerimeter=0;" parent="1" source="idymLwsRYckYHOoIfN-_-4" target="idymLwsRYckYHOoIfN-_-5" edge="1">
          <mxGeometry relative="1" as="geometry">
            <Array as="points">
              <mxPoint x="5731" y="-720" />
              <mxPoint x="5570" y="-720" />
            </Array>
          </mxGeometry>
        </mxCell>
        <mxCell id="idymLwsRYckYHOoIfN-_-27" style="edgeStyle=orthogonalEdgeStyle;rounded=0;orthogonalLoop=1;jettySize=auto;html=1;" parent="1" source="idymLwsRYckYHOoIfN-_-4" edge="1">
          <mxGeometry relative="1" as="geometry">
            <mxPoint x="5916" y="-956" as="targetPoint" />
            <Array as="points">
              <mxPoint x="5916" y="-803" />
            </Array>
          </mxGeometry>
        </mxCell>
        <mxCell id="idymLwsRYckYHOoIfN-_-28" value=".1" style="text;strokeColor=none;align=center;fillColor=none;html=1;verticalAlign=middle;whiteSpace=wrap;rounded=0;" parent="1" vertex="1">
          <mxGeometry x="5656" y="-806" width="60" height="30" as="geometry" />
        </mxCell>
        <mxCell id="idymLwsRYckYHOoIfN-_-29" value=".1" style="text;strokeColor=none;align=center;fillColor=none;html=1;verticalAlign=middle;whiteSpace=wrap;rounded=0;" parent="1" vertex="1">
          <mxGeometry x="5825" y="-803.5" width="60" height="30" as="geometry" />
        </mxCell>
        <mxCell id="1rF84t2fvDRtTQMVhOa5-1" value="" style="shape=mxgraph.cisco.misc.repeater;html=1;pointerEvents=1;dashed=0;fillColor=#036897;strokeColor=#ffffff;strokeWidth=2;verticalLabelPosition=bottom;verticalAlign=top;align=center;outlineConnect=0;" parent="1" vertex="1">
          <mxGeometry x="-1364" y="98.5" width="64" height="42" as="geometry" />
        </mxCell>
        <mxCell id="1rF84t2fvDRtTQMVhOa5-2" value="" style="shape=mxgraph.cisco.misc.repeater;html=1;pointerEvents=1;dashed=0;fillColor=#036897;strokeColor=#ffffff;strokeWidth=2;verticalLabelPosition=bottom;verticalAlign=top;align=center;outlineConnect=0;" parent="1" vertex="1">
          <mxGeometry x="-1059" y="97.5" width="64" height="42" as="geometry" />
        </mxCell>
        <mxCell id="1rF84t2fvDRtTQMVhOa5-3" value="msk-pavlovskaya-teyuboglu-mc-1" style="text;strokeColor=none;align=center;fillColor=none;html=1;verticalAlign=middle;whiteSpace=wrap;rounded=0;" parent="1" vertex="1">
          <mxGeometry x="-1436" y="140.5" width="213" height="30" as="geometry" />
        </mxCell>
        <mxCell id="1rF84t2fvDRtTQMVhOa5-4" value="msk-donskaya-teyuboglu-mc-1" style="text;strokeColor=none;align=center;fillColor=none;html=1;verticalAlign=middle;whiteSpace=wrap;rounded=0;" parent="1" vertex="1">
          <mxGeometry x="-1131" y="140.5" width="213" height="30" as="geometry" />
        </mxCell>
        <mxCell id="1rF84t2fvDRtTQMVhOa5-5" value="" style="shape=mxgraph.cisco.misc.repeater;html=1;pointerEvents=1;dashed=0;fillColor=#036897;strokeColor=#ffffff;strokeWidth=2;verticalLabelPosition=bottom;verticalAlign=top;align=center;outlineConnect=0;" parent="1" vertex="1">
          <mxGeometry x="922" y="82" width="64" height="42" as="geometry" />
        </mxCell>
        <mxCell id="1rF84t2fvDRtTQMVhOa5-6" value="" style="shape=mxgraph.cisco.misc.repeater;html=1;pointerEvents=1;dashed=0;fillColor=#036897;strokeColor=#ffffff;strokeWidth=2;verticalLabelPosition=bottom;verticalAlign=top;align=center;outlineConnect=0;" parent="1" vertex="1">
          <mxGeometry x="1177" y="83" width="64" height="42" as="geometry" />
        </mxCell>
        <mxCell id="1rF84t2fvDRtTQMVhOa5-7" value="msk-donskaya-teyuboglu-mc-1" style="text;strokeColor=none;align=center;fillColor=none;html=1;verticalAlign=middle;whiteSpace=wrap;rounded=0;" parent="1" vertex="1">
          <mxGeometry x="1109" y="125" width="213" height="30" as="geometry" />
        </mxCell>
        <mxCell id="1rF84t2fvDRtTQMVhOa5-8" value="msk-pavlovskaya-teyuboglu-mc-1" style="text;strokeColor=none;align=center;fillColor=none;html=1;verticalAlign=middle;whiteSpace=wrap;rounded=0;" parent="1" vertex="1">
          <mxGeometry x="847.5" y="124" width="213" height="30" as="geometry" />
        </mxCell>
        <mxCell id="1rF84t2fvDRtTQMVhOa5-37" style="edgeStyle=orthogonalEdgeStyle;rounded=0;orthogonalLoop=1;jettySize=auto;html=1;" parent="1" source="1rF84t2fvDRtTQMVhOa5-9" target="1rF84t2fvDRtTQMVhOa5-10" edge="1">
          <mxGeometry relative="1" as="geometry" />
        </mxCell>
        <mxCell id="1rF84t2fvDRtTQMVhOa5-9" value="" style="shape=mxgraph.cisco.misc.repeater;html=1;pointerEvents=1;dashed=0;fillColor=#036897;strokeColor=#ffffff;strokeWidth=2;verticalLabelPosition=bottom;verticalAlign=top;align=center;outlineConnect=0;" parent="1" vertex="1">
          <mxGeometry x="-779.5" y="-232" width="64" height="42" as="geometry" />
        </mxCell>
        <mxCell id="1rF84t2fvDRtTQMVhOa5-38" style="edgeStyle=orthogonalEdgeStyle;rounded=0;orthogonalLoop=1;jettySize=auto;html=1;" parent="1" source="1rF84t2fvDRtTQMVhOa5-10" target="1rF84t2fvDRtTQMVhOa5-13" edge="1">
          <mxGeometry relative="1" as="geometry" />
        </mxCell>
        <mxCell id="1rF84t2fvDRtTQMVhOa5-10" value="" style="shape=mxgraph.cisco.misc.repeater;html=1;pointerEvents=1;dashed=0;fillColor=#036897;strokeColor=#ffffff;strokeWidth=2;verticalLabelPosition=bottom;verticalAlign=top;align=center;outlineConnect=0;" parent="1" vertex="1">
          <mxGeometry x="-780" y="-424" width="64" height="42" as="geometry" />
        </mxCell>
        <mxCell id="1rF84t2fvDRtTQMVhOa5-41" style="edgeStyle=orthogonalEdgeStyle;rounded=0;orthogonalLoop=1;jettySize=auto;html=1;" parent="1" source="1rF84t2fvDRtTQMVhOa5-11" target="1rF84t2fvDRtTQMVhOa5-12" edge="1">
          <mxGeometry relative="1" as="geometry" />
        </mxCell>
        <mxCell id="1rF84t2fvDRtTQMVhOa5-11" value="" style="shape=mxgraph.cisco.misc.repeater;html=1;pointerEvents=1;dashed=0;fillColor=#036897;strokeColor=#ffffff;strokeWidth=2;verticalLabelPosition=bottom;verticalAlign=top;align=center;outlineConnect=0;" parent="1" vertex="1">
          <mxGeometry x="-771" y="-622" width="64" height="42" as="geometry" />
        </mxCell>
        <mxCell id="1rF84t2fvDRtTQMVhOa5-42" style="edgeStyle=orthogonalEdgeStyle;rounded=0;orthogonalLoop=1;jettySize=auto;html=1;" parent="1" source="1rF84t2fvDRtTQMVhOa5-12" target="1rF84t2fvDRtTQMVhOa5-24" edge="1">
          <mxGeometry relative="1" as="geometry" />
        </mxCell>
        <mxCell id="1rF84t2fvDRtTQMVhOa5-12" value="" style="shape=mxgraph.cisco.misc.repeater;html=1;pointerEvents=1;dashed=0;fillColor=#036897;strokeColor=#ffffff;strokeWidth=2;verticalLabelPosition=bottom;verticalAlign=top;align=center;outlineConnect=0;" parent="1" vertex="1">
          <mxGeometry x="-772" y="-780" width="64" height="42" as="geometry" />
        </mxCell>
        <mxCell id="1rF84t2fvDRtTQMVhOa5-39" style="edgeStyle=orthogonalEdgeStyle;rounded=0;orthogonalLoop=1;jettySize=auto;html=1;" parent="1" source="1rF84t2fvDRtTQMVhOa5-13" target="1rF84t2fvDRtTQMVhOa5-16" edge="1">
          <mxGeometry relative="1" as="geometry" />
        </mxCell>
        <mxCell id="QMVOJO1z4B_m-U_cxtdK-26" style="edgeStyle=orthogonalEdgeStyle;rounded=0;orthogonalLoop=1;jettySize=auto;html=1;" edge="1" parent="1" source="1rF84t2fvDRtTQMVhOa5-13" target="QMVOJO1z4B_m-U_cxtdK-1">
          <mxGeometry relative="1" as="geometry" />
        </mxCell>
        <mxCell id="QMVOJO1z4B_m-U_cxtdK-50" style="edgeStyle=orthogonalEdgeStyle;rounded=0;orthogonalLoop=1;jettySize=auto;html=1;" edge="1" parent="1" source="1rF84t2fvDRtTQMVhOa5-13" target="QMVOJO1z4B_m-U_cxtdK-5">
          <mxGeometry relative="1" as="geometry">
            <Array as="points">
              <mxPoint x="-1007" y="-466" />
              <mxPoint x="-466" y="-466" />
            </Array>
          </mxGeometry>
        </mxCell>
        <mxCell id="1rF84t2fvDRtTQMVhOa5-13" value="" style="shape=mxgraph.cisco.switches.workgroup_switch;html=1;pointerEvents=1;dashed=0;fillColor=#036897;strokeColor=#ffffff;strokeWidth=2;verticalLabelPosition=bottom;verticalAlign=top;align=center;outlineConnect=0;" parent="1" vertex="1">
          <mxGeometry x="-1070" y="-424" width="84.5" height="44" as="geometry" />
        </mxCell>
        <mxCell id="1rF84t2fvDRtTQMVhOa5-14" value="2960" style="text;strokeColor=none;align=center;fillColor=none;html=1;verticalAlign=middle;whiteSpace=wrap;rounded=0;" parent="1" vertex="1">
          <mxGeometry x="-1061.75" y="-403" width="50.5" height="23" as="geometry" />
        </mxCell>
        <mxCell id="1rF84t2fvDRtTQMVhOa5-15" value="provider-teyuboglu-sw-1" style="text;strokeColor=none;align=center;fillColor=none;html=1;verticalAlign=middle;whiteSpace=wrap;rounded=0;" parent="1" vertex="1">
          <mxGeometry x="-1134.25" y="-378" width="213" height="30" as="geometry" />
        </mxCell>
        <mxCell id="1rF84t2fvDRtTQMVhOa5-40" style="edgeStyle=orthogonalEdgeStyle;rounded=0;orthogonalLoop=1;jettySize=auto;html=1;" parent="1" source="1rF84t2fvDRtTQMVhOa5-16" target="1rF84t2fvDRtTQMVhOa5-11" edge="1">
          <mxGeometry relative="1" as="geometry" />
        </mxCell>
        <mxCell id="1rF84t2fvDRtTQMVhOa5-16" value="" style="shape=mxgraph.cisco.routers.router;html=1;pointerEvents=1;dashed=0;fillColor=#036897;strokeColor=#ffffff;strokeWidth=2;verticalLabelPosition=bottom;verticalAlign=top;align=center;outlineConnect=0;" parent="1" vertex="1">
          <mxGeometry x="-1061.75" y="-572.5" width="68" height="39" as="geometry" />
        </mxCell>
        <mxCell id="1rF84t2fvDRtTQMVhOa5-17" value="2811" style="text;strokeColor=none;align=center;fillColor=none;html=1;verticalAlign=middle;whiteSpace=wrap;rounded=0;" parent="1" vertex="1">
          <mxGeometry x="-1050.09" y="-557" width="44.67" height="30" as="geometry" />
        </mxCell>
        <mxCell id="1rF84t2fvDRtTQMVhOa5-18" value="provider-teyuboglu-qw-1" style="text;strokeColor=none;align=center;fillColor=none;html=1;verticalAlign=middle;whiteSpace=wrap;rounded=0;" parent="1" vertex="1">
          <mxGeometry x="-1139.5" y="-533.5" width="213" height="30" as="geometry" />
        </mxCell>
        <mxCell id="1rF84t2fvDRtTQMVhOa5-19" value="provider-donskaya-teyuboglu-mc-2" style="text;strokeColor=none;align=center;fillColor=none;html=1;verticalAlign=middle;whiteSpace=wrap;rounded=0;" parent="1" vertex="1">
          <mxGeometry x="-852" y="-199" width="213" height="30" as="geometry" />
        </mxCell>
        <mxCell id="1rF84t2fvDRtTQMVhOa5-20" value="provider-teyuboglu-mc-1" style="text;strokeColor=none;align=center;fillColor=none;html=1;verticalAlign=middle;whiteSpace=wrap;rounded=0;" parent="1" vertex="1">
          <mxGeometry x="-852" y="-389" width="213" height="30" as="geometry" />
        </mxCell>
        <mxCell id="1rF84t2fvDRtTQMVhOa5-21" value="provider-teyuboglu-mc-2" style="text;strokeColor=none;align=center;fillColor=none;html=1;verticalAlign=middle;whiteSpace=wrap;rounded=0;" parent="1" vertex="1">
          <mxGeometry x="-841" y="-589.5" width="213" height="30" as="geometry" />
        </mxCell>
        <mxCell id="1rF84t2fvDRtTQMVhOa5-22" value="internet-teyuboglu-mc-1" style="text;strokeColor=none;align=center;fillColor=none;html=1;verticalAlign=middle;whiteSpace=wrap;rounded=0;" parent="1" vertex="1">
          <mxGeometry x="-844" y="-745.5" width="213" height="30" as="geometry" />
        </mxCell>
        <mxCell id="1rF84t2fvDRtTQMVhOa5-44" style="edgeStyle=orthogonalEdgeStyle;rounded=0;orthogonalLoop=1;jettySize=auto;html=1;" parent="1" source="1rF84t2fvDRtTQMVhOa5-24" target="1rF84t2fvDRtTQMVhOa5-33" edge="1">
          <mxGeometry relative="1" as="geometry" />
        </mxCell>
        <mxCell id="1rF84t2fvDRtTQMVhOa5-45" style="edgeStyle=orthogonalEdgeStyle;rounded=0;orthogonalLoop=1;jettySize=auto;html=1;" parent="1" source="1rF84t2fvDRtTQMVhOa5-24" target="1rF84t2fvDRtTQMVhOa5-29" edge="1">
          <mxGeometry relative="1" as="geometry" />
        </mxCell>
        <mxCell id="1rF84t2fvDRtTQMVhOa5-24" value="" style="shape=mxgraph.cisco.switches.workgroup_switch;html=1;pointerEvents=1;dashed=0;fillColor=#036897;strokeColor=#ffffff;strokeWidth=2;verticalLabelPosition=bottom;verticalAlign=top;align=center;outlineConnect=0;" parent="1" vertex="1">
          <mxGeometry x="-782.75" y="-943" width="84.5" height="44" as="geometry" />
        </mxCell>
        <mxCell id="1rF84t2fvDRtTQMVhOa5-43" style="edgeStyle=orthogonalEdgeStyle;rounded=0;orthogonalLoop=1;jettySize=auto;html=1;" parent="1" source="1rF84t2fvDRtTQMVhOa5-25" target="1rF84t2fvDRtTQMVhOa5-31" edge="1">
          <mxGeometry relative="1" as="geometry" />
        </mxCell>
        <mxCell id="1rF84t2fvDRtTQMVhOa5-46" style="edgeStyle=orthogonalEdgeStyle;rounded=0;orthogonalLoop=1;jettySize=auto;html=1;" parent="1" source="1rF84t2fvDRtTQMVhOa5-25" target="1rF84t2fvDRtTQMVhOa5-27" edge="1">
          <mxGeometry relative="1" as="geometry" />
        </mxCell>
        <mxCell id="1rF84t2fvDRtTQMVhOa5-25" value="2960" style="text;strokeColor=none;align=center;fillColor=none;html=1;verticalAlign=middle;whiteSpace=wrap;rounded=0;" parent="1" vertex="1">
          <mxGeometry x="-774.5" y="-922" width="50.5" height="23" as="geometry" />
        </mxCell>
        <mxCell id="1rF84t2fvDRtTQMVhOa5-26" value="internet-teyuboglu-sw-1" style="text;strokeColor=none;align=center;fillColor=none;html=1;verticalAlign=middle;whiteSpace=wrap;rounded=0;" parent="1" vertex="1">
          <mxGeometry x="-847" y="-897" width="213" height="30" as="geometry" />
        </mxCell>
        <mxCell id="1rF84t2fvDRtTQMVhOa5-27" value="" style="shape=mxgraph.cisco.servers.fileserver;html=1;pointerEvents=1;dashed=0;fillColor=#036897;strokeColor=#ffffff;strokeWidth=2;verticalLabelPosition=bottom;verticalAlign=top;align=center;outlineConnect=0;" parent="1" vertex="1">
          <mxGeometry x="-507.01000000000005" y="-862" width="49" height="68" as="geometry" />
        </mxCell>
        <mxCell id="1rF84t2fvDRtTQMVhOa5-28" value="www.yandex.ru" style="text;strokeColor=none;align=center;fillColor=none;html=1;verticalAlign=middle;whiteSpace=wrap;rounded=0;" parent="1" vertex="1">
          <mxGeometry x="-531.34" y="-799" width="95" height="28" as="geometry" />
        </mxCell>
        <mxCell id="1rF84t2fvDRtTQMVhOa5-29" value="" style="shape=mxgraph.cisco.servers.fileserver;html=1;pointerEvents=1;dashed=0;fillColor=#036897;strokeColor=#ffffff;strokeWidth=2;verticalLabelPosition=bottom;verticalAlign=top;align=center;outlineConnect=0;" parent="1" vertex="1">
          <mxGeometry x="-508.34000000000003" y="-1065" width="49" height="68" as="geometry" />
        </mxCell>
        <mxCell id="1rF84t2fvDRtTQMVhOa5-30" value="stud.rudn.university" style="text;strokeColor=none;align=center;fillColor=none;html=1;verticalAlign=middle;whiteSpace=wrap;rounded=0;" parent="1" vertex="1">
          <mxGeometry x="-538.35" y="-1005" width="111.67" height="24" as="geometry" />
        </mxCell>
        <mxCell id="1rF84t2fvDRtTQMVhOa5-31" value="" style="shape=mxgraph.cisco.servers.fileserver;html=1;pointerEvents=1;dashed=0;fillColor=#036897;strokeColor=#ffffff;strokeWidth=2;verticalLabelPosition=bottom;verticalAlign=top;align=center;outlineConnect=0;" parent="1" vertex="1">
          <mxGeometry x="-1025.76" y="-850.5" width="49" height="68" as="geometry" />
        </mxCell>
        <mxCell id="1rF84t2fvDRtTQMVhOa5-32" value="www.rudn.ru" style="text;strokeColor=none;align=center;fillColor=none;html=1;verticalAlign=middle;whiteSpace=wrap;rounded=0;" parent="1" vertex="1">
          <mxGeometry x="-1050.09" y="-787.5" width="95" height="28" as="geometry" />
        </mxCell>
        <mxCell id="1rF84t2fvDRtTQMVhOa5-33" value="" style="shape=mxgraph.cisco.servers.fileserver;html=1;pointerEvents=1;dashed=0;fillColor=#036897;strokeColor=#ffffff;strokeWidth=2;verticalLabelPosition=bottom;verticalAlign=top;align=center;outlineConnect=0;" parent="1" vertex="1">
          <mxGeometry x="-1025.76" y="-1065" width="49" height="68" as="geometry" />
        </mxCell>
        <mxCell id="1rF84t2fvDRtTQMVhOa5-34" value="esystem.pfur.ru" style="text;strokeColor=none;align=center;fillColor=none;html=1;verticalAlign=middle;whiteSpace=wrap;rounded=0;" parent="1" vertex="1">
          <mxGeometry x="-1050.0900000000001" y="-1002" width="95" height="28" as="geometry" />
        </mxCell>
        <mxCell id="1rF84t2fvDRtTQMVhOa5-51" style="edgeStyle=orthogonalEdgeStyle;rounded=0;orthogonalLoop=1;jettySize=auto;html=1;" parent="1" source="1rF84t2fvDRtTQMVhOa5-52" target="1rF84t2fvDRtTQMVhOa5-54" edge="1">
          <mxGeometry relative="1" as="geometry" />
        </mxCell>
        <mxCell id="1rF84t2fvDRtTQMVhOa5-52" value="" style="shape=mxgraph.cisco.misc.repeater;html=1;pointerEvents=1;dashed=0;fillColor=#036897;strokeColor=#ffffff;strokeWidth=2;verticalLabelPosition=bottom;verticalAlign=top;align=center;outlineConnect=0;" parent="1" vertex="1">
          <mxGeometry x="1450.93" y="-199.5" width="64" height="42" as="geometry" />
        </mxCell>
        <mxCell id="1rF84t2fvDRtTQMVhOa5-53" style="edgeStyle=orthogonalEdgeStyle;rounded=0;orthogonalLoop=1;jettySize=auto;html=1;" parent="1" source="1rF84t2fvDRtTQMVhOa5-54" edge="1">
          <mxGeometry relative="1" as="geometry">
            <mxPoint x="1245.43" y="-369.5" as="targetPoint" />
          </mxGeometry>
        </mxCell>
        <mxCell id="1rF84t2fvDRtTQMVhOa5-54" value="" style="shape=mxgraph.cisco.misc.repeater;html=1;pointerEvents=1;dashed=0;fillColor=#036897;strokeColor=#ffffff;strokeWidth=2;verticalLabelPosition=bottom;verticalAlign=top;align=center;outlineConnect=0;" parent="1" vertex="1">
          <mxGeometry x="1450.43" y="-391.5" width="64" height="42" as="geometry" />
        </mxCell>
        <mxCell id="1rF84t2fvDRtTQMVhOa5-55" style="edgeStyle=orthogonalEdgeStyle;rounded=0;orthogonalLoop=1;jettySize=auto;html=1;" parent="1" source="1rF84t2fvDRtTQMVhOa5-56" target="1rF84t2fvDRtTQMVhOa5-58" edge="1">
          <mxGeometry relative="1" as="geometry" />
        </mxCell>
        <mxCell id="1rF84t2fvDRtTQMVhOa5-56" value="" style="shape=mxgraph.cisco.misc.repeater;html=1;pointerEvents=1;dashed=0;fillColor=#036897;strokeColor=#ffffff;strokeWidth=2;verticalLabelPosition=bottom;verticalAlign=top;align=center;outlineConnect=0;" parent="1" vertex="1">
          <mxGeometry x="1459.43" y="-589.5" width="64" height="42" as="geometry" />
        </mxCell>
        <mxCell id="1rF84t2fvDRtTQMVhOa5-57" style="edgeStyle=orthogonalEdgeStyle;rounded=0;orthogonalLoop=1;jettySize=auto;html=1;" parent="1" source="1rF84t2fvDRtTQMVhOa5-58" target="1rF84t2fvDRtTQMVhOa5-70" edge="1">
          <mxGeometry relative="1" as="geometry" />
        </mxCell>
        <mxCell id="1rF84t2fvDRtTQMVhOa5-58" value="" style="shape=mxgraph.cisco.misc.repeater;html=1;pointerEvents=1;dashed=0;fillColor=#036897;strokeColor=#ffffff;strokeWidth=2;verticalLabelPosition=bottom;verticalAlign=top;align=center;outlineConnect=0;" parent="1" vertex="1">
          <mxGeometry x="1458.43" y="-747.5" width="64" height="42" as="geometry" />
        </mxCell>
        <mxCell id="1rF84t2fvDRtTQMVhOa5-59" style="edgeStyle=orthogonalEdgeStyle;rounded=0;orthogonalLoop=1;jettySize=auto;html=1;" parent="1" target="1rF84t2fvDRtTQMVhOa5-62" edge="1">
          <mxGeometry relative="1" as="geometry">
            <mxPoint x="1202.43" y="-391.5" as="sourcePoint" />
          </mxGeometry>
        </mxCell>
        <mxCell id="1rF84t2fvDRtTQMVhOa5-61" style="edgeStyle=orthogonalEdgeStyle;rounded=0;orthogonalLoop=1;jettySize=auto;html=1;" parent="1" source="1rF84t2fvDRtTQMVhOa5-62" target="1rF84t2fvDRtTQMVhOa5-56" edge="1">
          <mxGeometry relative="1" as="geometry" />
        </mxCell>
        <mxCell id="1rF84t2fvDRtTQMVhOa5-62" value="" style="shape=mxgraph.cisco.routers.router;html=1;pointerEvents=1;dashed=0;fillColor=#036897;strokeColor=#ffffff;strokeWidth=2;verticalLabelPosition=bottom;verticalAlign=top;align=center;outlineConnect=0;" parent="1" vertex="1">
          <mxGeometry x="1168.68" y="-540" width="68" height="39" as="geometry" />
        </mxCell>
        <mxCell id="1rF84t2fvDRtTQMVhOa5-63" value="2811" style="text;strokeColor=none;align=center;fillColor=none;html=1;verticalAlign=middle;whiteSpace=wrap;rounded=0;" parent="1" vertex="1">
          <mxGeometry x="1180.3400000000001" y="-524.5" width="44.67" height="30" as="geometry" />
        </mxCell>
        <mxCell id="1rF84t2fvDRtTQMVhOa5-64" value="provider-donskaya-teyuboglu-mc-2" style="text;strokeColor=none;align=center;fillColor=none;html=1;verticalAlign=middle;whiteSpace=wrap;rounded=0;" parent="1" vertex="1">
          <mxGeometry x="1378.43" y="-166.5" width="213" height="30" as="geometry" />
        </mxCell>
        <mxCell id="1rF84t2fvDRtTQMVhOa5-65" value="provider-teyuboglu-mc-1" style="text;strokeColor=none;align=center;fillColor=none;html=1;verticalAlign=middle;whiteSpace=wrap;rounded=0;" parent="1" vertex="1">
          <mxGeometry x="1378.43" y="-356.5" width="213" height="30" as="geometry" />
        </mxCell>
        <mxCell id="1rF84t2fvDRtTQMVhOa5-66" value="provider-teyuboglu-mc-2" style="text;strokeColor=none;align=center;fillColor=none;html=1;verticalAlign=middle;whiteSpace=wrap;rounded=0;" parent="1" vertex="1">
          <mxGeometry x="1389.43" y="-557" width="213" height="30" as="geometry" />
        </mxCell>
        <mxCell id="1rF84t2fvDRtTQMVhOa5-67" value="internet-teyuboglu-mc-1" style="text;strokeColor=none;align=center;fillColor=none;html=1;verticalAlign=middle;whiteSpace=wrap;rounded=0;" parent="1" vertex="1">
          <mxGeometry x="1386.43" y="-713" width="213" height="30" as="geometry" />
        </mxCell>
        <mxCell id="1rF84t2fvDRtTQMVhOa5-68" style="edgeStyle=orthogonalEdgeStyle;rounded=0;orthogonalLoop=1;jettySize=auto;html=1;" parent="1" source="1rF84t2fvDRtTQMVhOa5-70" edge="1">
          <mxGeometry relative="1" as="geometry">
            <mxPoint x="1229.43" y="-964.5" as="targetPoint" />
          </mxGeometry>
        </mxCell>
        <mxCell id="1rF84t2fvDRtTQMVhOa5-69" style="edgeStyle=orthogonalEdgeStyle;rounded=0;orthogonalLoop=1;jettySize=auto;html=1;" parent="1" source="1rF84t2fvDRtTQMVhOa5-70" target="1rF84t2fvDRtTQMVhOa5-77" edge="1">
          <mxGeometry relative="1" as="geometry" />
        </mxCell>
        <mxCell id="1rF84t2fvDRtTQMVhOa5-70" value="" style="shape=mxgraph.cisco.switches.workgroup_switch;html=1;pointerEvents=1;dashed=0;fillColor=#036897;strokeColor=#ffffff;strokeWidth=2;verticalLabelPosition=bottom;verticalAlign=top;align=center;outlineConnect=0;" parent="1" vertex="1">
          <mxGeometry x="1447.68" y="-910.5" width="84.5" height="44" as="geometry" />
        </mxCell>
        <mxCell id="1rF84t2fvDRtTQMVhOa5-71" style="edgeStyle=orthogonalEdgeStyle;rounded=0;orthogonalLoop=1;jettySize=auto;html=1;" parent="1" source="1rF84t2fvDRtTQMVhOa5-73" target="1rF84t2fvDRtTQMVhOa5-79" edge="1">
          <mxGeometry relative="1" as="geometry" />
        </mxCell>
        <mxCell id="1rF84t2fvDRtTQMVhOa5-72" style="edgeStyle=orthogonalEdgeStyle;rounded=0;orthogonalLoop=1;jettySize=auto;html=1;" parent="1" source="1rF84t2fvDRtTQMVhOa5-73" target="1rF84t2fvDRtTQMVhOa5-75" edge="1">
          <mxGeometry relative="1" as="geometry" />
        </mxCell>
        <mxCell id="1rF84t2fvDRtTQMVhOa5-73" value="2960" style="text;strokeColor=none;align=center;fillColor=none;html=1;verticalAlign=middle;whiteSpace=wrap;rounded=0;" parent="1" vertex="1">
          <mxGeometry x="1455.93" y="-889.5" width="50.5" height="23" as="geometry" />
        </mxCell>
        <mxCell id="1rF84t2fvDRtTQMVhOa5-74" value="internet-teyuboglu-sw-1" style="text;strokeColor=none;align=center;fillColor=none;html=1;verticalAlign=middle;whiteSpace=wrap;rounded=0;" parent="1" vertex="1">
          <mxGeometry x="1383.43" y="-864.5" width="213" height="30" as="geometry" />
        </mxCell>
        <mxCell id="1rF84t2fvDRtTQMVhOa5-75" value="" style="shape=mxgraph.cisco.servers.fileserver;html=1;pointerEvents=1;dashed=0;fillColor=#036897;strokeColor=#ffffff;strokeWidth=2;verticalLabelPosition=bottom;verticalAlign=top;align=center;outlineConnect=0;" parent="1" vertex="1">
          <mxGeometry x="1723.42" y="-829.5" width="49" height="68" as="geometry" />
        </mxCell>
        <mxCell id="1rF84t2fvDRtTQMVhOa5-76" value="www.yandex.ru" style="text;strokeColor=none;align=center;fillColor=none;html=1;verticalAlign=middle;whiteSpace=wrap;rounded=0;" parent="1" vertex="1">
          <mxGeometry x="1699.09" y="-766.5" width="95" height="28" as="geometry" />
        </mxCell>
        <mxCell id="1rF84t2fvDRtTQMVhOa5-77" value="" style="shape=mxgraph.cisco.servers.fileserver;html=1;pointerEvents=1;dashed=0;fillColor=#036897;strokeColor=#ffffff;strokeWidth=2;verticalLabelPosition=bottom;verticalAlign=top;align=center;outlineConnect=0;" parent="1" vertex="1">
          <mxGeometry x="1722.09" y="-1032.5" width="49" height="68" as="geometry" />
        </mxCell>
        <mxCell id="1rF84t2fvDRtTQMVhOa5-78" value="stud.rudn.university" style="text;strokeColor=none;align=center;fillColor=none;html=1;verticalAlign=middle;whiteSpace=wrap;rounded=0;" parent="1" vertex="1">
          <mxGeometry x="1692.0800000000002" y="-972.5" width="111.67" height="24" as="geometry" />
        </mxCell>
        <mxCell id="1rF84t2fvDRtTQMVhOa5-79" value="" style="shape=mxgraph.cisco.servers.fileserver;html=1;pointerEvents=1;dashed=0;fillColor=#036897;strokeColor=#ffffff;strokeWidth=2;verticalLabelPosition=bottom;verticalAlign=top;align=center;outlineConnect=0;" parent="1" vertex="1">
          <mxGeometry x="1204.67" y="-818" width="49" height="68" as="geometry" />
        </mxCell>
        <mxCell id="1rF84t2fvDRtTQMVhOa5-80" value="www.rudn.ru" style="text;strokeColor=none;align=center;fillColor=none;html=1;verticalAlign=middle;whiteSpace=wrap;rounded=0;" parent="1" vertex="1">
          <mxGeometry x="1180.3400000000001" y="-755" width="95" height="28" as="geometry" />
        </mxCell>
        <mxCell id="1rF84t2fvDRtTQMVhOa5-81" value="esystem.pfur.ru" style="text;strokeColor=none;align=center;fillColor=none;html=1;verticalAlign=middle;whiteSpace=wrap;rounded=0;" parent="1" vertex="1">
          <mxGeometry x="1180.34" y="-969.5" width="95" height="28" as="geometry" />
        </mxCell>
        <mxCell id="1rF84t2fvDRtTQMVhOa5-82" value="" style="shape=mxgraph.cisco.switches.workgroup_switch;html=1;pointerEvents=1;dashed=0;fillColor=#036897;strokeColor=#ffffff;strokeWidth=2;verticalLabelPosition=bottom;verticalAlign=top;align=center;outlineConnect=0;" parent="1" vertex="1">
          <mxGeometry x="1165.18" y="-392.5" width="84.5" height="44" as="geometry" />
        </mxCell>
        <mxCell id="1rF84t2fvDRtTQMVhOa5-83" value="2960" style="text;strokeColor=none;align=center;fillColor=none;html=1;verticalAlign=middle;whiteSpace=wrap;rounded=0;" parent="1" vertex="1">
          <mxGeometry x="1177.68" y="-375" width="44.67" height="30" as="geometry" />
        </mxCell>
        <mxCell id="1rF84t2fvDRtTQMVhOa5-84" value="provider-teyuboglu-sw-1" style="text;strokeColor=none;align=center;fillColor=none;html=1;verticalAlign=middle;whiteSpace=wrap;rounded=0;" parent="1" vertex="1">
          <mxGeometry x="1100.93" y="-358.5" width="213" height="30" as="geometry" />
        </mxCell>
        <mxCell id="1rF84t2fvDRtTQMVhOa5-85" value="provider-teyuboglu-qw-1" style="text;strokeColor=none;align=center;fillColor=none;html=1;verticalAlign=middle;whiteSpace=wrap;rounded=0;" parent="1" vertex="1">
          <mxGeometry x="1102.5" y="-510" width="213" height="30" as="geometry" />
        </mxCell>
        <mxCell id="1rF84t2fvDRtTQMVhOa5-86" value="" style="shape=mxgraph.cisco.servers.fileserver;html=1;pointerEvents=1;dashed=0;fillColor=#036897;strokeColor=#ffffff;strokeWidth=2;verticalLabelPosition=bottom;verticalAlign=top;align=center;outlineConnect=0;" parent="1" vertex="1">
          <mxGeometry x="1207" y="-1029.5" width="49" height="68" as="geometry" />
        </mxCell>
        <mxCell id="1rF84t2fvDRtTQMVhOa5-89" value="FE0/1" style="text;strokeColor=none;align=center;fillColor=none;html=1;verticalAlign=middle;whiteSpace=wrap;rounded=0;" parent="1" vertex="1">
          <mxGeometry x="-747" y="-94.5" width="60" height="30" as="geometry" />
        </mxCell>
        <mxCell id="1rF84t2fvDRtTQMVhOa5-90" value="FE0/0" style="text;strokeColor=none;align=center;fillColor=none;html=1;verticalAlign=middle;whiteSpace=wrap;rounded=0;" parent="1" vertex="1">
          <mxGeometry x="-995" y="-397" width="60" height="30" as="geometry" />
        </mxCell>
        <mxCell id="1rF84t2fvDRtTQMVhOa5-91" value="FE0/1" style="text;strokeColor=none;align=center;fillColor=none;html=1;verticalAlign=middle;whiteSpace=wrap;rounded=0;" parent="1" vertex="1">
          <mxGeometry x="-1088" y="-457" width="60" height="30" as="geometry" />
        </mxCell>
        <mxCell id="1rF84t2fvDRtTQMVhOa5-92" value="FE0/0" style="text;strokeColor=none;align=center;fillColor=none;html=1;verticalAlign=middle;whiteSpace=wrap;rounded=0;" parent="1" vertex="1">
          <mxGeometry x="-1031.26" y="-518.5" width="60" height="30" as="geometry" />
        </mxCell>
        <mxCell id="1rF84t2fvDRtTQMVhOa5-93" value="FE0/1" style="text;strokeColor=none;align=center;fillColor=none;html=1;verticalAlign=middle;whiteSpace=wrap;rounded=0;" parent="1" vertex="1">
          <mxGeometry x="-1015.09" y="-590.5" width="60" height="30" as="geometry" />
        </mxCell>
        <mxCell id="1rF84t2fvDRtTQMVhOa5-94" value="FE0/1" style="text;strokeColor=none;align=center;fillColor=none;html=1;verticalAlign=middle;whiteSpace=wrap;rounded=0;" parent="1" vertex="1">
          <mxGeometry x="-841" y="-948.5" width="60" height="30" as="geometry" />
        </mxCell>
        <mxCell id="1rF84t2fvDRtTQMVhOa5-95" value="FE0/2" style="text;strokeColor=none;align=center;fillColor=none;html=1;verticalAlign=middle;whiteSpace=wrap;rounded=0;" parent="1" vertex="1">
          <mxGeometry x="-849" y="-910.5" width="60" height="30" as="geometry" />
        </mxCell>
        <mxCell id="1rF84t2fvDRtTQMVhOa5-96" value="FE0/3" style="text;strokeColor=none;align=center;fillColor=none;html=1;verticalAlign=middle;whiteSpace=wrap;rounded=0;" parent="1" vertex="1">
          <mxGeometry x="-698.25" y="-948.5" width="60" height="30" as="geometry" />
        </mxCell>
        <mxCell id="1rF84t2fvDRtTQMVhOa5-97" value="FE0/4" style="text;strokeColor=none;align=center;fillColor=none;html=1;verticalAlign=middle;whiteSpace=wrap;rounded=0;" parent="1" vertex="1">
          <mxGeometry x="-698.25" y="-912" width="60" height="30" as="geometry" />
        </mxCell>
        <mxCell id="1rF84t2fvDRtTQMVhOa5-98" value="4" style="text;strokeColor=none;align=center;fillColor=none;html=1;verticalAlign=middle;whiteSpace=wrap;rounded=0;" parent="1" vertex="1">
          <mxGeometry x="1465.93" y="-134" width="60" height="30" as="geometry" />
        </mxCell>
        <mxCell id="1rF84t2fvDRtTQMVhOa5-99" value="4" style="text;strokeColor=none;align=center;fillColor=none;html=1;verticalAlign=middle;whiteSpace=wrap;rounded=0;" parent="1" vertex="1">
          <mxGeometry x="1329.43" y="-370" width="60" height="30" as="geometry" />
        </mxCell>
        <mxCell id="1rF84t2fvDRtTQMVhOa5-100" value="4" style="text;strokeColor=none;align=center;fillColor=none;html=1;verticalAlign=middle;whiteSpace=wrap;rounded=0;" parent="1" vertex="1">
          <mxGeometry x="1181" y="-457" width="60" height="30" as="geometry" />
        </mxCell>
        <mxCell id="1rF84t2fvDRtTQMVhOa5-101" value="4" style="text;strokeColor=none;align=center;fillColor=none;html=1;verticalAlign=middle;whiteSpace=wrap;rounded=0;" parent="1" vertex="1">
          <mxGeometry x="1309.5" y="-540" width="60" height="30" as="geometry" />
        </mxCell>
        <mxCell id="1rF84t2fvDRtTQMVhOa5-102" value="vlan internet" style="text;strokeColor=none;align=center;fillColor=none;html=1;verticalAlign=middle;whiteSpace=wrap;rounded=0;" parent="1" vertex="1">
          <mxGeometry x="1199.17" y="-563.5" width="71.83" height="30" as="geometry" />
        </mxCell>
        <mxCell id="1rF84t2fvDRtTQMVhOa5-103" value="vlan internet" style="text;strokeColor=none;align=center;fillColor=none;html=1;verticalAlign=middle;whiteSpace=wrap;rounded=0;" parent="1" vertex="1">
          <mxGeometry x="1419" y="-791" width="71.83" height="30" as="geometry" />
        </mxCell>
        <mxCell id="IcGbuUoQC4X2YVqcs3NK-8" style="edgeStyle=orthogonalEdgeStyle;rounded=0;orthogonalLoop=1;jettySize=auto;html=1;" parent="1" source="IcGbuUoQC4X2YVqcs3NK-1" target="IcGbuUoQC4X2YVqcs3NK-5" edge="1">
          <mxGeometry relative="1" as="geometry">
            <Array as="points">
              <mxPoint x="3623" y="-1185" />
              <mxPoint x="3623" y="-1185" />
            </Array>
          </mxGeometry>
        </mxCell>
        <mxCell id="IcGbuUoQC4X2YVqcs3NK-1" value="" style="points=[[0,0.64,0],[0.2,0.15,0],[0.4,0.01,0],[0.79,0.25,0],[1,0.65,0],[0.8,0.86,0],[0.41,1,0],[0.16,0.86,0]];verticalLabelPosition=bottom;sketch=0;html=1;verticalAlign=top;aspect=fixed;align=center;pointerEvents=1;shape=mxgraph.cisco19.cloud;fillColor=#186180;strokeColor=none;" parent="1" vertex="1">
          <mxGeometry x="3501" y="-1168" width="255.01" height="153" as="geometry" />
        </mxCell>
        <mxCell id="IcGbuUoQC4X2YVqcs3NK-2" value="Провайдер" style="text;strokeColor=none;align=center;fillColor=none;html=1;verticalAlign=middle;whiteSpace=wrap;rounded=0;" parent="1" vertex="1">
          <mxGeometry x="3551" y="-1129.5" width="126" height="30" as="geometry" />
        </mxCell>
        <mxCell id="IcGbuUoQC4X2YVqcs3NK-3" value="198.51.100.0/24" style="text;strokeColor=none;align=center;fillColor=none;html=1;verticalAlign=middle;whiteSpace=wrap;rounded=0;" parent="1" vertex="1">
          <mxGeometry x="3553.5" y="-1091" width="123.5" height="30" as="geometry" />
        </mxCell>
        <mxCell id="IcGbuUoQC4X2YVqcs3NK-4" style="edgeStyle=orthogonalEdgeStyle;rounded=0;orthogonalLoop=1;jettySize=auto;html=1;entryX=0.502;entryY=0.974;entryDx=0;entryDy=0;entryPerimeter=0;" parent="1" source="12okKEDnnOAbfhYoop25-151" target="IcGbuUoQC4X2YVqcs3NK-1" edge="1">
          <mxGeometry relative="1" as="geometry" />
        </mxCell>
        <mxCell id="lpW1UeHiEiIB6f5gpM1i-1" style="edgeStyle=orthogonalEdgeStyle;rounded=0;orthogonalLoop=1;jettySize=auto;html=1;" parent="1" source="IcGbuUoQC4X2YVqcs3NK-5" target="IcGbuUoQC4X2YVqcs3NK-9" edge="1">
          <mxGeometry relative="1" as="geometry" />
        </mxCell>
        <mxCell id="IcGbuUoQC4X2YVqcs3NK-5" value="" style="shape=mxgraph.cisco.routers.router;html=1;pointerEvents=1;dashed=0;fillColor=#036897;strokeColor=#ffffff;strokeWidth=2;verticalLabelPosition=bottom;verticalAlign=top;align=center;outlineConnect=0;" parent="1" vertex="1">
          <mxGeometry x="3570.5" y="-1293" width="104" height="54" as="geometry" />
        </mxCell>
        <mxCell id="IcGbuUoQC4X2YVqcs3NK-6" value="2811" style="text;strokeColor=none;align=center;fillColor=none;html=1;verticalAlign=middle;whiteSpace=wrap;rounded=0;" parent="1" vertex="1">
          <mxGeometry x="3600.17" y="-1265" width="44.67" height="30" as="geometry" />
        </mxCell>
        <mxCell id="IcGbuUoQC4X2YVqcs3NK-7" value="provider-teyuboglu-gw-1" style="text;strokeColor=none;align=center;fillColor=none;html=1;verticalAlign=middle;whiteSpace=wrap;rounded=0;" parent="1" vertex="1">
          <mxGeometry x="3514" y="-1247" width="213" height="30" as="geometry" />
        </mxCell>
        <mxCell id="IcGbuUoQC4X2YVqcs3NK-9" value="" style="points=[[0,0.64,0],[0.2,0.15,0],[0.4,0.01,0],[0.79,0.25,0],[1,0.65,0],[0.8,0.86,0],[0.41,1,0],[0.16,0.86,0]];verticalLabelPosition=bottom;sketch=0;html=1;verticalAlign=top;aspect=fixed;align=center;pointerEvents=1;shape=mxgraph.cisco19.cloud;fillColor=#186180;strokeColor=none;" parent="1" vertex="1">
          <mxGeometry x="3727" y="-1476" width="255.01" height="153" as="geometry" />
        </mxCell>
        <mxCell id="IcGbuUoQC4X2YVqcs3NK-10" value="WWW" style="text;strokeColor=none;align=center;fillColor=none;html=1;verticalAlign=middle;whiteSpace=wrap;rounded=0;" parent="1" vertex="1">
          <mxGeometry x="3777" y="-1437.5" width="126" height="30" as="geometry" />
        </mxCell>
        <mxCell id="IcGbuUoQC4X2YVqcs3NK-11" value="192.0.2.0/24" style="text;strokeColor=none;align=center;fillColor=none;html=1;verticalAlign=middle;whiteSpace=wrap;rounded=0;" parent="1" vertex="1">
          <mxGeometry x="3779.5" y="-1395" width="123.5" height="30" as="geometry" />
        </mxCell>
        <mxCell id="QMVOJO1z4B_m-U_cxtdK-27" style="edgeStyle=orthogonalEdgeStyle;rounded=0;orthogonalLoop=1;jettySize=auto;html=1;" edge="1" parent="1" source="QMVOJO1z4B_m-U_cxtdK-1" target="QMVOJO1z4B_m-U_cxtdK-3">
          <mxGeometry relative="1" as="geometry" />
        </mxCell>
        <mxCell id="QMVOJO1z4B_m-U_cxtdK-1" value="" style="shape=mxgraph.cisco.misc.repeater;html=1;pointerEvents=1;dashed=0;fillColor=#036897;strokeColor=#ffffff;strokeWidth=2;verticalLabelPosition=bottom;verticalAlign=top;align=center;outlineConnect=0;" vertex="1" parent="1">
          <mxGeometry x="-1211" y="-429.5" width="64" height="42" as="geometry" />
        </mxCell>
        <mxCell id="QMVOJO1z4B_m-U_cxtdK-2" value="provider-teyuboglu-mc-3" style="text;strokeColor=none;align=center;fillColor=none;html=1;verticalAlign=middle;whiteSpace=wrap;rounded=0;" vertex="1" parent="1">
          <mxGeometry x="-1283" y="-386.5" width="213" height="30" as="geometry" />
        </mxCell>
        <mxCell id="QMVOJO1z4B_m-U_cxtdK-28" style="edgeStyle=orthogonalEdgeStyle;rounded=0;orthogonalLoop=1;jettySize=auto;html=1;entryX=1;entryY=0.5;entryDx=0;entryDy=0;" edge="1" parent="1" source="QMVOJO1z4B_m-U_cxtdK-3" target="QMVOJO1z4B_m-U_cxtdK-13">
          <mxGeometry relative="1" as="geometry" />
        </mxCell>
        <mxCell id="QMVOJO1z4B_m-U_cxtdK-3" value="" style="shape=mxgraph.cisco.misc.repeater;html=1;pointerEvents=1;dashed=0;fillColor=#036897;strokeColor=#ffffff;strokeWidth=2;verticalLabelPosition=bottom;verticalAlign=top;align=center;outlineConnect=0;" vertex="1" parent="1">
          <mxGeometry x="-1366.5" y="-429.5" width="64" height="42" as="geometry" />
        </mxCell>
        <mxCell id="QMVOJO1z4B_m-U_cxtdK-4" value="msk-q42-teyuboglu-mc-1" style="text;strokeColor=none;align=center;fillColor=none;html=1;verticalAlign=middle;whiteSpace=wrap;rounded=0;" vertex="1" parent="1">
          <mxGeometry x="-1438.5" y="-386.5" width="213" height="30" as="geometry" />
        </mxCell>
        <mxCell id="QMVOJO1z4B_m-U_cxtdK-60" style="edgeStyle=orthogonalEdgeStyle;rounded=0;orthogonalLoop=1;jettySize=auto;html=1;" edge="1" parent="1" source="QMVOJO1z4B_m-U_cxtdK-5" target="QMVOJO1z4B_m-U_cxtdK-7">
          <mxGeometry relative="1" as="geometry" />
        </mxCell>
        <mxCell id="QMVOJO1z4B_m-U_cxtdK-5" value="" style="shape=mxgraph.cisco.misc.repeater;html=1;pointerEvents=1;dashed=0;fillColor=#036897;strokeColor=#ffffff;strokeWidth=2;verticalLabelPosition=bottom;verticalAlign=top;align=center;outlineConnect=0;" vertex="1" parent="1">
          <mxGeometry x="-498" y="-561.5" width="64" height="42" as="geometry" />
        </mxCell>
        <mxCell id="QMVOJO1z4B_m-U_cxtdK-6" value="provider-teyuboglu-mc-4" style="text;strokeColor=none;align=center;fillColor=none;html=1;verticalAlign=middle;whiteSpace=wrap;rounded=0;" vertex="1" parent="1">
          <mxGeometry x="-570" y="-518.5" width="213" height="30" as="geometry" />
        </mxCell>
        <mxCell id="QMVOJO1z4B_m-U_cxtdK-61" style="edgeStyle=orthogonalEdgeStyle;rounded=0;orthogonalLoop=1;jettySize=auto;html=1;" edge="1" parent="1" source="QMVOJO1z4B_m-U_cxtdK-7" target="QMVOJO1z4B_m-U_cxtdK-51">
          <mxGeometry relative="1" as="geometry" />
        </mxCell>
        <mxCell id="QMVOJO1z4B_m-U_cxtdK-7" value="" style="shape=mxgraph.cisco.misc.repeater;html=1;pointerEvents=1;dashed=0;fillColor=#036897;strokeColor=#ffffff;strokeWidth=2;verticalLabelPosition=bottom;verticalAlign=top;align=center;outlineConnect=0;" vertex="1" parent="1">
          <mxGeometry x="-244" y="-561.5" width="64" height="42" as="geometry" />
        </mxCell>
        <mxCell id="QMVOJO1z4B_m-U_cxtdK-8" value="sch-sochi-teyuboglu-mc-1" style="text;strokeColor=none;align=center;fillColor=none;html=1;verticalAlign=middle;whiteSpace=wrap;rounded=0;" vertex="1" parent="1">
          <mxGeometry x="-316" y="-518.5" width="213" height="30" as="geometry" />
        </mxCell>
        <mxCell id="QMVOJO1z4B_m-U_cxtdK-33" style="edgeStyle=orthogonalEdgeStyle;rounded=0;orthogonalLoop=1;jettySize=auto;html=1;" edge="1" parent="1" source="QMVOJO1z4B_m-U_cxtdK-9" target="QMVOJO1z4B_m-U_cxtdK-15">
          <mxGeometry relative="1" as="geometry" />
        </mxCell>
        <mxCell id="QMVOJO1z4B_m-U_cxtdK-9" value="" style="shape=mxgraph.cisco.switches.workgroup_switch;html=1;pointerEvents=1;dashed=0;fillColor=#036897;strokeColor=#ffffff;strokeWidth=2;verticalLabelPosition=bottom;verticalAlign=top;align=center;outlineConnect=0;" vertex="1" parent="1">
          <mxGeometry x="-1704" y="-367" width="101" height="50" as="geometry" />
        </mxCell>
        <mxCell id="QMVOJO1z4B_m-U_cxtdK-10" value="2950" style="text;strokeColor=none;align=center;fillColor=none;html=1;verticalAlign=middle;whiteSpace=wrap;rounded=0;" vertex="1" parent="1">
          <mxGeometry x="-1695.5" y="-345.5" width="60" height="30" as="geometry" />
        </mxCell>
        <mxCell id="QMVOJO1z4B_m-U_cxtdK-11" value="msk-q42-teyuboglu-sw-1" style="text;strokeColor=none;align=center;fillColor=none;html=1;verticalAlign=middle;whiteSpace=wrap;rounded=0;" vertex="1" parent="1">
          <mxGeometry x="-1759" y="-326.5" width="213" height="30" as="geometry" />
        </mxCell>
        <mxCell id="QMVOJO1z4B_m-U_cxtdK-30" style="edgeStyle=orthogonalEdgeStyle;rounded=0;orthogonalLoop=1;jettySize=auto;html=1;" edge="1" parent="1" source="QMVOJO1z4B_m-U_cxtdK-12" target="QMVOJO1z4B_m-U_cxtdK-17">
          <mxGeometry relative="1" as="geometry" />
        </mxCell>
        <mxCell id="QMVOJO1z4B_m-U_cxtdK-12" value="" style="shape=mxgraph.cisco.routers.router;html=1;pointerEvents=1;dashed=0;fillColor=#036897;strokeColor=#ffffff;strokeWidth=2;verticalLabelPosition=bottom;verticalAlign=top;align=center;outlineConnect=0;" vertex="1" parent="1">
          <mxGeometry x="-1484.25" y="-362" width="68" height="39" as="geometry" />
        </mxCell>
        <mxCell id="QMVOJO1z4B_m-U_cxtdK-43" style="edgeStyle=orthogonalEdgeStyle;rounded=0;orthogonalLoop=1;jettySize=auto;html=1;" edge="1" parent="1" source="QMVOJO1z4B_m-U_cxtdK-13" target="QMVOJO1z4B_m-U_cxtdK-10">
          <mxGeometry relative="1" as="geometry" />
        </mxCell>
        <mxCell id="QMVOJO1z4B_m-U_cxtdK-13" value="2811" style="text;strokeColor=none;align=center;fillColor=none;html=1;verticalAlign=middle;whiteSpace=wrap;rounded=0;" vertex="1" parent="1">
          <mxGeometry x="-1472.59" y="-346.5" width="44.67" height="30" as="geometry" />
        </mxCell>
        <mxCell id="QMVOJO1z4B_m-U_cxtdK-14" value="msk-q42-teyuboglu-gw-1" style="text;strokeColor=none;align=center;fillColor=none;html=1;verticalAlign=middle;whiteSpace=wrap;rounded=0;" vertex="1" parent="1">
          <mxGeometry x="-1562" y="-323" width="213" height="30" as="geometry" />
        </mxCell>
        <mxCell id="QMVOJO1z4B_m-U_cxtdK-15" value="" style="shape=mxgraph.cisco.computers_and_peripherals.laptop;html=1;pointerEvents=1;dashed=0;fillColor=#036897;strokeColor=#ffffff;strokeWidth=2;verticalLabelPosition=bottom;verticalAlign=top;align=center;outlineConnect=0;" vertex="1" parent="1">
          <mxGeometry x="-1688" y="-543.5" width="90" height="61" as="geometry" />
        </mxCell>
        <mxCell id="QMVOJO1z4B_m-U_cxtdK-16" value="Пользователи" style="text;strokeColor=none;align=center;fillColor=none;html=1;verticalAlign=middle;whiteSpace=wrap;rounded=0;" vertex="1" parent="1">
          <mxGeometry x="-1697.84" y="-485" width="90.67" height="30" as="geometry" />
        </mxCell>
        <mxCell id="QMVOJO1z4B_m-U_cxtdK-35" style="edgeStyle=orthogonalEdgeStyle;rounded=0;orthogonalLoop=1;jettySize=auto;html=1;" edge="1" parent="1" source="QMVOJO1z4B_m-U_cxtdK-17" target="QMVOJO1z4B_m-U_cxtdK-19">
          <mxGeometry relative="1" as="geometry" />
        </mxCell>
        <mxCell id="QMVOJO1z4B_m-U_cxtdK-17" value="" style="sketch=0;points=[[0.015,0.015,0],[0.985,0.015,0],[0.985,0.985,0],[0.015,0.985,0],[0.25,0,0],[0.5,0,0],[0.75,0,0],[1,0.25,0],[1,0.5,0],[1,0.75,0],[0.75,1,0],[0.5,1,0],[0.25,1,0],[0,0.75,0],[0,0.5,0],[0,0.25,0]];verticalLabelPosition=bottom;html=1;verticalAlign=top;aspect=fixed;align=center;pointerEvents=1;shape=mxgraph.cisco19.rect;prIcon=secure_catalyst_switch_color2;fillColor=#FAFAFA;strokeColor=#005073;" vertex="1" parent="1">
          <mxGeometry x="-1486.92" y="-521.5" width="59" height="59" as="geometry" />
        </mxCell>
        <mxCell id="QMVOJO1z4B_m-U_cxtdK-18" value="msk-hostel-teyuboglu-gw-1" style="text;strokeColor=none;align=center;fillColor=none;html=1;verticalAlign=middle;whiteSpace=wrap;rounded=0;" vertex="1" parent="1">
          <mxGeometry x="-1539.75" y="-468" width="158.75" height="30" as="geometry" />
        </mxCell>
        <mxCell id="QMVOJO1z4B_m-U_cxtdK-34" style="edgeStyle=orthogonalEdgeStyle;rounded=0;orthogonalLoop=1;jettySize=auto;html=1;" edge="1" parent="1" source="QMVOJO1z4B_m-U_cxtdK-19" target="QMVOJO1z4B_m-U_cxtdK-22">
          <mxGeometry relative="1" as="geometry" />
        </mxCell>
        <mxCell id="QMVOJO1z4B_m-U_cxtdK-19" value="" style="shape=mxgraph.cisco.switches.workgroup_switch;html=1;pointerEvents=1;dashed=0;fillColor=#036897;strokeColor=#ffffff;strokeWidth=2;verticalLabelPosition=bottom;verticalAlign=top;align=center;outlineConnect=0;" vertex="1" parent="1">
          <mxGeometry x="-1508.92" y="-686" width="101" height="50" as="geometry" />
        </mxCell>
        <mxCell id="QMVOJO1z4B_m-U_cxtdK-20" value="2960" style="text;strokeColor=none;align=center;fillColor=none;html=1;verticalAlign=middle;whiteSpace=wrap;rounded=0;" vertex="1" parent="1">
          <mxGeometry x="-1500.42" y="-664.5" width="60" height="30" as="geometry" />
        </mxCell>
        <mxCell id="QMVOJO1z4B_m-U_cxtdK-21" value="msk-hostel-teyuboglu-sw-1" style="text;strokeColor=none;align=center;fillColor=none;html=1;verticalAlign=middle;whiteSpace=wrap;rounded=0;" vertex="1" parent="1">
          <mxGeometry x="-1563.92" y="-633" width="213" height="30" as="geometry" />
        </mxCell>
        <mxCell id="QMVOJO1z4B_m-U_cxtdK-22" value="" style="shape=mxgraph.cisco.computers_and_peripherals.laptop;html=1;pointerEvents=1;dashed=0;fillColor=#036897;strokeColor=#ffffff;strokeWidth=2;verticalLabelPosition=bottom;verticalAlign=top;align=center;outlineConnect=0;" vertex="1" parent="1">
          <mxGeometry x="-1497.5" y="-836.5" width="90" height="61" as="geometry" />
        </mxCell>
        <mxCell id="QMVOJO1z4B_m-U_cxtdK-23" value="Пользователи" style="text;strokeColor=none;align=center;fillColor=none;html=1;verticalAlign=middle;whiteSpace=wrap;rounded=0;" vertex="1" parent="1">
          <mxGeometry x="-1507.34" y="-778" width="90.67" height="30" as="geometry" />
        </mxCell>
        <mxCell id="QMVOJO1z4B_m-U_cxtdK-24" value="" style="points=[[0,0.64,0],[0.2,0.15,0],[0.4,0.01,0],[0.79,0.25,0],[1,0.65,0],[0.8,0.86,0],[0.41,1,0],[0.16,0.86,0]];verticalLabelPosition=bottom;sketch=0;html=1;verticalAlign=top;aspect=fixed;align=center;pointerEvents=1;shape=mxgraph.cisco19.cloud;fillColor=#186180;strokeColor=none;" vertex="1" parent="1">
          <mxGeometry x="-1743" y="-577.75" width="215.84" height="129.5" as="geometry" />
        </mxCell>
        <mxCell id="QMVOJO1z4B_m-U_cxtdK-25" value="" style="points=[[0,0.64,0],[0.2,0.15,0],[0.4,0.01,0],[0.79,0.25,0],[1,0.65,0],[0.8,0.86,0],[0.41,1,0],[0.16,0.86,0]];verticalLabelPosition=bottom;sketch=0;html=1;verticalAlign=top;aspect=fixed;align=center;pointerEvents=1;shape=mxgraph.cisco19.cloud;fillColor=#186180;strokeColor=none;" vertex="1" parent="1">
          <mxGeometry x="-1546" y="-867.5" width="215.84" height="129.5" as="geometry" />
        </mxCell>
        <mxCell id="QMVOJO1z4B_m-U_cxtdK-36" value="FE0/3" style="text;strokeColor=none;align=center;fillColor=none;html=1;verticalAlign=middle;whiteSpace=wrap;rounded=0;" vertex="1" parent="1">
          <mxGeometry x="-1130" y="-405" width="60" height="30" as="geometry" />
        </mxCell>
        <mxCell id="QMVOJO1z4B_m-U_cxtdK-37" value="FE0/1" style="text;strokeColor=none;align=center;fillColor=none;html=1;verticalAlign=middle;whiteSpace=wrap;rounded=0;" vertex="1" parent="1">
          <mxGeometry x="-1396.16" y="-370" width="60" height="30" as="geometry" />
        </mxCell>
        <mxCell id="QMVOJO1z4B_m-U_cxtdK-38" value="FE1/0" style="text;strokeColor=none;align=center;fillColor=none;html=1;verticalAlign=middle;whiteSpace=wrap;rounded=0;" vertex="1" parent="1">
          <mxGeometry x="-1505" y="-392.5" width="60" height="30" as="geometry" />
        </mxCell>
        <mxCell id="QMVOJO1z4B_m-U_cxtdK-41" value="FE0/24" style="text;strokeColor=none;align=center;fillColor=none;html=1;verticalAlign=middle;whiteSpace=wrap;rounded=0;" vertex="1" parent="1">
          <mxGeometry x="-1603" y="-356.5" width="60" height="30" as="geometry" />
        </mxCell>
        <mxCell id="QMVOJO1z4B_m-U_cxtdK-42" value="FE0/1" style="text;strokeColor=none;align=center;fillColor=none;html=1;verticalAlign=middle;whiteSpace=wrap;rounded=0;" vertex="1" parent="1">
          <mxGeometry x="-1654" y="-412" width="60" height="30" as="geometry" />
        </mxCell>
        <mxCell id="QMVOJO1z4B_m-U_cxtdK-44" value="FE0/0" style="text;strokeColor=none;align=center;fillColor=none;html=1;verticalAlign=middle;whiteSpace=wrap;rounded=0;" vertex="1" parent="1">
          <mxGeometry x="-1539" y="-358.5" width="60" height="30" as="geometry" />
        </mxCell>
        <mxCell id="QMVOJO1z4B_m-U_cxtdK-46" value="FE0/1" style="text;strokeColor=none;align=center;fillColor=none;html=1;verticalAlign=middle;whiteSpace=wrap;rounded=0;" vertex="1" parent="1">
          <mxGeometry x="-1510" y="-451" width="60" height="30" as="geometry" />
        </mxCell>
        <mxCell id="QMVOJO1z4B_m-U_cxtdK-47" value="GE0/1" style="text;strokeColor=none;align=center;fillColor=none;html=1;verticalAlign=middle;whiteSpace=wrap;rounded=0;" vertex="1" parent="1">
          <mxGeometry x="-1460" y="-555.5" width="60" height="30" as="geometry" />
        </mxCell>
        <mxCell id="QMVOJO1z4B_m-U_cxtdK-48" value="GE0/1" style="text;strokeColor=none;align=center;fillColor=none;html=1;verticalAlign=middle;whiteSpace=wrap;rounded=0;" vertex="1" parent="1">
          <mxGeometry x="-1463" y="-616" width="60" height="30" as="geometry" />
        </mxCell>
        <mxCell id="QMVOJO1z4B_m-U_cxtdK-49" value="FE0/1" style="text;strokeColor=none;align=center;fillColor=none;html=1;verticalAlign=middle;whiteSpace=wrap;rounded=0;" vertex="1" parent="1">
          <mxGeometry x="-1463" y="-724" width="60" height="30" as="geometry" />
        </mxCell>
        <mxCell id="QMVOJO1z4B_m-U_cxtdK-62" style="edgeStyle=orthogonalEdgeStyle;rounded=0;orthogonalLoop=1;jettySize=auto;html=1;" edge="1" parent="1" source="QMVOJO1z4B_m-U_cxtdK-51" target="QMVOJO1z4B_m-U_cxtdK-54">
          <mxGeometry relative="1" as="geometry">
            <Array as="points">
              <mxPoint x="-3" y="-572" />
              <mxPoint x="14" y="-572" />
            </Array>
          </mxGeometry>
        </mxCell>
        <mxCell id="QMVOJO1z4B_m-U_cxtdK-63" style="edgeStyle=orthogonalEdgeStyle;rounded=0;orthogonalLoop=1;jettySize=auto;html=1;" edge="1" parent="1" source="QMVOJO1z4B_m-U_cxtdK-51" target="QMVOJO1z4B_m-U_cxtdK-57">
          <mxGeometry relative="1" as="geometry" />
        </mxCell>
        <mxCell id="QMVOJO1z4B_m-U_cxtdK-51" value="" style="shape=mxgraph.cisco.switches.workgroup_switch;html=1;pointerEvents=1;dashed=0;fillColor=#036897;strokeColor=#ffffff;strokeWidth=2;verticalLabelPosition=bottom;verticalAlign=top;align=center;outlineConnect=0;" vertex="1" parent="1">
          <mxGeometry x="-75" y="-468" width="101" height="50" as="geometry" />
        </mxCell>
        <mxCell id="QMVOJO1z4B_m-U_cxtdK-52" value="2950" style="text;strokeColor=none;align=center;fillColor=none;html=1;verticalAlign=middle;whiteSpace=wrap;rounded=0;" vertex="1" parent="1">
          <mxGeometry x="-66.5" y="-446.5" width="60" height="30" as="geometry" />
        </mxCell>
        <mxCell id="QMVOJO1z4B_m-U_cxtdK-53" value="sch-sochi-teyuboglu-sw-1" style="text;strokeColor=none;align=center;fillColor=none;html=1;verticalAlign=middle;whiteSpace=wrap;rounded=0;" vertex="1" parent="1">
          <mxGeometry x="-130" y="-427.5" width="213" height="30" as="geometry" />
        </mxCell>
        <mxCell id="QMVOJO1z4B_m-U_cxtdK-54" value="" style="shape=mxgraph.cisco.routers.router;html=1;pointerEvents=1;dashed=0;fillColor=#036897;strokeColor=#ffffff;strokeWidth=2;verticalLabelPosition=bottom;verticalAlign=top;align=center;outlineConnect=0;" vertex="1" parent="1">
          <mxGeometry x="-20.25" y="-715.5" width="68" height="39" as="geometry" />
        </mxCell>
        <mxCell id="QMVOJO1z4B_m-U_cxtdK-55" value="2811" style="text;strokeColor=none;align=center;fillColor=none;html=1;verticalAlign=middle;whiteSpace=wrap;rounded=0;" vertex="1" parent="1">
          <mxGeometry x="-8.589999999999918" y="-700" width="44.67" height="30" as="geometry" />
        </mxCell>
        <mxCell id="QMVOJO1z4B_m-U_cxtdK-56" value="sch-sochi-teyuboglu-gw-1" style="text;strokeColor=none;align=center;fillColor=none;html=1;verticalAlign=middle;whiteSpace=wrap;rounded=0;" vertex="1" parent="1">
          <mxGeometry x="-98" y="-676.5" width="213" height="30" as="geometry" />
        </mxCell>
        <mxCell id="QMVOJO1z4B_m-U_cxtdK-57" value="" style="shape=mxgraph.cisco.computers_and_peripherals.laptop;html=1;pointerEvents=1;dashed=0;fillColor=#036897;strokeColor=#ffffff;strokeWidth=2;verticalLabelPosition=bottom;verticalAlign=top;align=center;outlineConnect=0;" vertex="1" parent="1">
          <mxGeometry x="208.83999999999992" y="-602" width="90" height="61" as="geometry" />
        </mxCell>
        <mxCell id="QMVOJO1z4B_m-U_cxtdK-58" value="Пользователи" style="text;strokeColor=none;align=center;fillColor=none;html=1;verticalAlign=middle;whiteSpace=wrap;rounded=0;" vertex="1" parent="1">
          <mxGeometry x="199" y="-543.5" width="90.67" height="30" as="geometry" />
        </mxCell>
        <mxCell id="QMVOJO1z4B_m-U_cxtdK-59" value="" style="points=[[0,0.64,0],[0.2,0.15,0],[0.4,0.01,0],[0.79,0.25,0],[1,0.65,0],[0.8,0.86,0],[0.41,1,0],[0.16,0.86,0]];verticalLabelPosition=bottom;sketch=0;html=1;verticalAlign=top;aspect=fixed;align=center;pointerEvents=1;shape=mxgraph.cisco19.cloud;fillColor=#186180;strokeColor=none;" vertex="1" parent="1">
          <mxGeometry x="163" y="-634.5" width="215.84" height="129.5" as="geometry" />
        </mxCell>
        <mxCell id="QMVOJO1z4B_m-U_cxtdK-64" value="FE0/4" style="text;strokeColor=none;align=center;fillColor=none;html=1;verticalAlign=middle;whiteSpace=wrap;rounded=0;" vertex="1" parent="1">
          <mxGeometry x="-1003" y="-458" width="60" height="30" as="geometry" />
        </mxCell>
        <mxCell id="QMVOJO1z4B_m-U_cxtdK-66" value="FE0/24" style="text;strokeColor=none;align=center;fillColor=none;html=1;verticalAlign=middle;whiteSpace=wrap;rounded=0;" vertex="1" parent="1">
          <mxGeometry x="-80.25" y="-501" width="60" height="30" as="geometry" />
        </mxCell>
        <mxCell id="QMVOJO1z4B_m-U_cxtdK-67" value="FE0/23" style="text;strokeColor=none;align=center;fillColor=none;html=1;verticalAlign=middle;whiteSpace=wrap;rounded=0;" vertex="1" parent="1">
          <mxGeometry x="1" y="-498" width="60" height="30" as="geometry" />
        </mxCell>
        <mxCell id="QMVOJO1z4B_m-U_cxtdK-68" value="FE0/0" style="text;strokeColor=none;align=center;fillColor=none;html=1;verticalAlign=middle;whiteSpace=wrap;rounded=0;" vertex="1" parent="1">
          <mxGeometry x="17" y="-652" width="60" height="30" as="geometry" />
        </mxCell>
        <mxCell id="QMVOJO1z4B_m-U_cxtdK-69" value="FE0/1" style="text;strokeColor=none;align=center;fillColor=none;html=1;verticalAlign=middle;whiteSpace=wrap;rounded=0;" vertex="1" parent="1">
          <mxGeometry x="61" y="-442" width="60" height="30" as="geometry" />
        </mxCell>
      </root>
    </mxGraphModel>
  </diagram>
</mxfile>
